<?xml version="1.0" encoding="UTF-8"?><svg id="Layer_2" xmlns="http://www.w3.org/2000/svg" viewBox="0 0 389.48 390"><defs><style>.cls-1{fill:#d1b48c;stroke-width:0px;}</style></defs><g id="Layer_1-2"><path class="cls-1" d="M281.58,93.26h39.27c4.58-14.72,8.19-29.89,10.36-39.7h-37.1c-3.61,13.38-7.71,26.77-12.53,39.7Z"/><path class="cls-1" d="M325.67,181.58v-62.01h-11.08c-.24,49.96-3.85,74.94-24.57,104.39l-7.47-16.06v43.72h28.43c1.2-12.49,1.93-25.87,2.17-40.59l17.35,1.78c-.24,13.83-.96,26.77-2.17,38.81h34.45v-50.85c-2.89,4.46-7.71,6.69-15.66,6.69-17.1,0-21.44-5.35-21.44-25.87Z"/><path class="cls-1" d="M355.3,156.6l7.47,5.35v-42.38h-22.89v50.85c0,8.92.72,11.15,7.95,11.15s7.47-4.46,7.47-24.98Z"/><path class="cls-1" d="M282.55,119.58v77.62c14.94-19.18,17.35-38.81,17.59-77.62h-17.59Z"/><path class="cls-1" d="M306.4,0c-1.69,8.48-3.61,18.76-5.78,27.68h41.44l10.84,15.61c-3.13,13.38-8.19,33.46-13.01,49.96h39.03v158.36h10.57V0h-83.09Z"/><path class="cls-1" d="M389.48,362.71v-84.77h-55.62c12.17,41.25,34.33,71.94,55.62,84.77Z"/><path class="cls-1" d="M321.57,294.89c-9.68,41.58-26.95,71.08-51.64,90.75-3.36.87-6.97,1.36-10.75,1.36-1.68,0-3.32-.1-4.92-.28l-5.92-19.11c33-17.84,50.83-46.84,59.02-89.67h-53.24v-26.32h11.56v-120c-2.41,4.91-4.82,9.37-7.47,13.83l-8.91-25.87c-4.34,10.71-8.67,20.97-13.73,31.23-.24,22.3-.72,43.27-1.69,63.34,6.02,34.8,15.42,64.24,28.19,93.23l-9.88,29.89c-9.88-26.32-17.35-49.96-22.16-72.27-4.41,43.31-12.5,82.12-26.59,120.22-3.77,1.14-7.91,1.78-12.25,1.78s-8.07-.57-11.69-1.61c-37.14-51.37-69.16-128.38-84.37-202.03C86.02,247.77,49.42,334.36,0,390l165-.08v.08h224.48c-24.78-16.94-55.11-53.21-67.91-95.11Z"/><path class="cls-1" d="M140,88c-1.34,2.5-2.8,4.86-4.31,7.19-6.85,10.49-14.64,20.33-22.98,29.66h74.43v18.44h-74.36c2.81,3.17,5.56,6.38,8.27,9.65,6.9,8.55,13.58,17.4,18.94,27.06-12.45-7.13-23.86-15.87-34.62-25.34,13.94,81.01,48.07,156.68,87.36,204.03,23.01-61.22,26.92-144.63,26.92-252.94V3h16.14v107.21c6.02-16.51,9.6-33.56,13.94-53.19l11.25,18.98c-1,8-4.71,25.29-8.57,35.55,15.85-30.61,28.09-71.87,35.7-111.55H102.35v116c7.53-6.73,15.39-13.1,23.61-19.04,4.55-3.19,9.12-6.29,14.04-8.96ZM210.43,97.88l-7.85,116.12-16.33-16.85,8.38-118.15,15.79,18.88Z"/><path class="cls-1" d="M48,180c5.37-9.66,12.04-18.5,18.94-27.06,2.7-3.26,5.46-6.48,8.27-9.65H0v218.68c48.69-53.89,73.96-141.4,81.11-206-10.32,8.96-21.24,17.23-33.11,24.02Z"/><path class="cls-1" d="M75.29,124.85c-8.34-9.33-16.13-19.17-22.98-29.66-1.5-2.33-2.97-4.7-4.31-7.19,4.92,2.67,9.5,5.76,14.04,8.96,7.63,5.51,14.95,11.41,22,17.61V0H0v124.85h75.29Z"/></g></svg>