<?xml version="1.0" encoding="UTF-8"?><svg id="Layer_2" xmlns="http://www.w3.org/2000/svg" viewBox="0 0 66.32 79.57"><defs><style>.cls-1{fill:#221816;}.cls-1,.cls-2{stroke-width:0px;}.cls-2{fill:#e63f2a;}</style></defs><g id="Layer_1-2"><path class="cls-1" d="M37.26,13.51V0h-8.2v13.51C12.68,15.55,0,29.8,0,46.41c0,18.29,14.88,33.16,33.16,33.16,5.29,0,10.34-1.21,15.02-3.59l1.05-.53-3.72-7.31-1.05.53c-3.52,1.79-7.32,2.7-11.3,2.7-13.76,0-24.96-11.2-24.96-24.96s11.2-24.96,24.96-24.96,24.96,11.2,24.96,24.96v1.18h8.2v-1.18c0-16.62-12.68-30.86-29.06-32.9Z"/><polygon class="cls-2" points="32.1 52.65 32.1 60.85 56.41 60.85 56.41 77.07 64.61 77.07 64.61 52.65 32.1 52.65"/></g></svg>