<?xml version="1.0" encoding="UTF-8"?><svg id="Layer_2" xmlns="http://www.w3.org/2000/svg" viewBox="0 0 33.4 33.4"><defs><style>.cls-1{fill:#a88d4d;stroke-width:0px;}</style></defs><g id="_레이어_1"><path class="cls-1" d="m33.4,33.4H0V0h33.4v33.4Zm-30.9-2.5h28.4V2.5H2.5v28.4Z"/><polygon class="cls-1" points="27.5 17.6 25 17.6 25 8.3 5.8 8.3 5.8 5.8 27.5 5.8 27.5 17.6"/><polygon class="cls-1" points="23.4 17.6 20.9 17.6 20.9 12.4 5.8 12.4 5.8 9.8 23.4 9.8 23.4 17.6"/><polygon class="cls-1" points="27.5 27.6 5.8 27.6 5.8 15.8 8.3 15.8 8.3 25.1 27.5 25.1 27.5 27.6"/><polygon class="cls-1" points="27.5 23.5 9.9 23.5 9.9 15.8 12.4 15.8 12.4 21 27.5 21 27.5 23.5"/></g></svg>