<?xml version="1.0" encoding="UTF-8"?><svg id="Layer_2" xmlns="http://www.w3.org/2000/svg" viewBox="0 0 150 55.3"><defs><style>.cls-1{fill:#0b318b;stroke-width:0px;}</style></defs><g id="_레이어_1"><path class="cls-1" d="M139.99,47.95c-.76,1.89-2.91,3.9-2.91,3.9l-1.39-1.43c2.2-1.97,2.86-4.4,2.86-4.4.53-1.98.45-5.87.45-5.87h-2.41v-1.97h6.75v1.97h-2.36s-.12,3.93.45,5.87c0,0,.58,2.38,2.78,4.4l-1.3,1.48s-2.15-2.06-2.91-3.95"/><polygon class="cls-1" points="127.53 38.17 127.53 36.9 125.12 36.9 125.12 38.17 121.66 38.17 121.66 40 130.8 40 130.8 38.17 127.53 38.17"/><path class="cls-1" d="M104.63,54.52h-10.43v-7.52h10.43v7.52ZM102.33,48.97h-5.82v3.57h5.82v-3.57Z"/><polygon class="cls-1" points="106.55 41.22 104.63 41.22 104.63 37.28 102.33 37.28 102.33 46.44 104.63 46.44 104.63 43.06 106.55 43.06 106.55 41.22"/><path class="cls-1" d="M97.21,37.51h-2.07s.78,4.27-3.62,7.09l1.36,1.41s2.3-1.27,3.34-3.57"/><polygon class="cls-1" points="117.17 37.28 117.17 40.52 114.4 40.52 114.4 42.35 117.17 42.35 117.17 46.44 119.47 46.44 119.47 37.28 117.17 37.28"/><polygon class="cls-1" points="136.21 43.93 134.1 43.93 134.1 37.32 131.79 37.32 131.79 54.47 134.1 54.47 134.1 45.76 136.21 45.76 136.21 43.93"/><polygon class="cls-1" points="147.7 37.34 147.7 43.95 146.96 43.95 146.96 37.34 144.66 37.34 144.66 54.5 146.96 54.5 146.96 45.78 147.7 45.78 147.7 54.5 150 54.5 150 37.34 147.7 37.34"/><path class="cls-1" d="M109.82,37.51h2s-.47,4.27,3.62,7.09l-1.36,1.41s-2.3-1.27-3.34-3.57"/><path class="cls-1" d="M111.81,37.51h-2.02s.47,4.3-3.62,7.09l1.36,1.41s2.3-1.27,3.34-3.57"/><path class="cls-1" d="M108.18,50.85c0-2.46,2.62-4.45,5.85-4.45s5.84,1.99,5.84,4.45-2.62,4.45-5.84,4.45-5.85-1.99-5.85-4.45M114.02,53.38c1.98,0,3.59-1.13,3.59-2.52s-1.61-2.52-3.59-2.52-3.59,1.13-3.59,2.52,1.61,2.52,3.59,2.52"/><path class="cls-1" d="M95.23,37.51h2.07s-.78,4.27,3.62,7.09l-1.36,1.41s-2.3-1.27-3.34-3.57"/><path class="cls-1" d="M102.44,24.24c.19-.27.33-.58.33-.94v-4.66h-2.58v-.02h-1.3v1.77h.91v2.05s.07.95-.98.98c0,0-.93,0-.93-.93v-6.24c0-.93.93-.93.93-.93,1.05.02.98.98.98.98v.72h2.98v-1.58c0-1.07-1.26-1.82-1.26-1.82-.74-.49-2.05-.51-2.05-.51h-1.51c-1.3.02-2.07.7-2.07.7-.95.63-.95,1.72-.95,1.72v7.69s0,1.09.95,1.72c0,0,.77.68,2.07.7h1.44c-9.87,4.3-23.05,8.12-37.77,10.61C29.19,41.73,1.64,38.68.07,29.42c-.83-4.9,5.79-10.55,17.02-15.61-.92.63-.93,1.7-.93,1.7v1.72c0,1.42,1.03,2.12,1.03,2.12.3.21,2.72,1.54,2.72,1.54.96.3,1.14,1.23,1.14,1.23.02,1.23-1.02,1.17-1.02,1.17-1.03-.02-.98-1.17-.98-1.17v-.77h-3.19v.84c0,1.96,1.07,2.61,1.07,2.61,1.05.82,3.28.79,3.28.79,1.77,0,3.03-.93,3.03-.93.93-.72.98-1.75.98-1.75v-1.72c0-1.7-1.54-2.42-1.54-2.42l-2.68-1.4c-1-.4-.88-1.14-.88-1.14,0-.93.93-.93.93-.93,1.05.02.98.98.98.98v.72h2.98v-1.58c0-1.07-1.26-1.82-1.26-1.82-.75-.49-2.05-.51-2.05-.51h-1.51c-.24,0-.45.05-.65.09,9.83-4.23,22.87-8,37.41-10.46,32.43-5.49,59.98-2.44,61.55,6.82.78,4.6-5.03,9.88-15.05,14.69M64.44,15.43c0-1.07-1.26-1.82-1.26-1.82-.75-.49-2.05-.51-2.05-.51h-1.51c-1.3.02-2.07.7-2.07.7-.95.63-.95,1.72-.95,1.72v1.72c0,1.42,1.02,2.12,1.02,2.12.3.21,2.72,1.54,2.72,1.54.96.3,1.14,1.23,1.14,1.23.02,1.23-1.02,1.17-1.02,1.17-1.03-.02-.98-1.17-.98-1.17v-.77h-3.19v.84c0,1.96,1.07,2.61,1.07,2.61,1.05.82,3.28.79,3.28.79,1.77,0,3.03-.93,3.03-.93.93-.72.98-1.75.98-1.75v-1.72c0-1.7-1.54-2.42-1.54-2.42l-2.68-1.4c-1-.4-.88-1.14-.88-1.14,0-.93.93-.93.93-.93,1.05.02.98.98.98.98v.72h2.98v-1.58ZM34.37,13.4h-5.12l-1.96,11.55h3.17l1.35-9.08,1.35,9.08h3.21l-2-11.55ZM42.89,24.95v-8.71l1.86,8.71h3.17l1.86-8.66v8.66c-.19.05,2.89,0,2.89,0v-11.55s-4.89,0-4.89,0l-1.44,6.57-1.44-6.57h-4.89v11.55h2.89ZM90.68,13.4h-2.89v7.03l-3.21-7.03h-3.68v11.55h2.89v-6.89l3.17,6.89h3.73v-11.55,11.55M71.63,22.3v-8.9h-3.31v8.8s-.19,3.4,4.15,3.4,4.24-3.4,4.24-3.4v-8.8h-3.31v8.9s.02,1.03-.89,1.03-.88-1.03-.88-1.03"/><path class="cls-1" d="M127.62,50.03v-1.6c1.84-.5,3.17-2,3.17-3.76,0-2.18-2.02-3.94-4.52-3.94s-4.52,1.76-4.52,3.94c0,1.86,1.47,3.41,3.45,3.83v1.53h-3.47v1.98h9.14v-1.98h-3.27ZM123.72,44.67c0-1.16,1.14-2.1,2.55-2.1s2.55.94,2.55,2.1-1.14,2.1-2.55,2.1-2.55-.94-2.55-2.1"/></g></svg>