<?xml version="1.0" encoding="UTF-8"?><svg id="Layer_2" xmlns="http://www.w3.org/2000/svg" viewBox="0 0 94.7 72.43"><defs><style>.cls-1{fill:#002e6d;stroke-width:0px;}</style></defs><g id="Layer_1-2"><polygon class="cls-1" points="89.13 0 83.56 0 77.99 0 72.42 0 66.85 0 61.28 0 55.7 0 50.13 0 44.56 0 38.99 0 33.42 0 27.85 0 22.28 0 16.7 0 11.13 0 11.13 5.57 16.7 5.57 22.28 5.57 27.85 5.57 33.42 5.57 38.99 5.57 44.56 5.57 50.13 5.57 55.7 5.57 61.28 5.57 66.85 5.57 72.42 5.57 77.99 5.57 77.99 11.14 77.99 16.71 77.99 22.29 77.99 27.86 77.99 33.43 77.99 39 77.99 44.57 77.99 50.14 83.56 50.14 83.56 44.57 83.56 39 83.56 33.43 83.56 27.86 83.56 22.29 83.56 16.71 83.56 11.14 83.56 5.57 89.13 5.57 89.13 11.14 89.13 16.71 89.13 22.29 89.13 27.86 89.13 33.43 89.13 39 89.13 44.57 89.13 50.14 89.13 55.71 83.56 55.71 83.56 55.71 80.46 55.71 77.99 55.71 77.99 55.71 72.42 55.71 72.42 55.71 66.85 55.71 61.27 55.71 61.27 50.14 61.27 44.57 55.7 44.57 55.7 50.14 55.7 55.71 55.7 61.29 61.27 61.29 66.85 61.29 72.42 61.29 72.42 61.29 77.99 61.29 77.99 61.29 80.46 61.29 83.56 61.29 83.56 61.29 89.13 61.29 89.13 66.86 89.13 72.43 94.7 72.43 94.7 66.86 94.7 61.29 94.7 55.71 94.7 50.14 94.7 44.57 94.7 39 94.7 33.43 94.7 27.86 94.7 22.29 94.7 16.71 94.7 11.14 94.7 5.57 94.7 0 89.13 0"/><polygon class="cls-1" points="72.42 66.86 72.42 66.86 66.85 66.86 66.85 66.86 61.28 66.86 61.28 66.86 55.71 66.86 55.71 66.86 50.14 66.86 44.57 66.86 39 66.86 39 66.86 38.99 66.86 38.99 61.29 38.99 55.71 38.99 50.14 38.99 44.57 38.99 39 44.56 39 44.56 44.57 44.56 50.14 44.56 55.71 44.56 61.29 50.13 61.29 50.13 55.71 50.13 50.14 50.13 44.57 50.13 39 50.13 33.43 50.13 27.86 50.13 22.29 50.13 16.71 50.13 11.14 44.56 11.14 44.56 16.71 44.56 22.29 44.56 27.86 44.56 33.43 38.99 33.43 38.99 27.86 38.99 22.29 38.99 16.71 38.99 11.14 33.42 11.14 33.42 16.71 33.42 22.29 33.42 27.86 33.42 33.43 33.42 39 33.42 44.57 33.42 50.14 33.42 55.71 33.42 61.29 33.42 66.86 27.86 66.86 27.85 66.86 22.28 66.86 16.71 66.86 11.14 66.86 11.14 66.86 5.57 66.86 5.57 61.29 5.57 55.71 5.57 50.14 5.57 44.57 5.57 39 5.57 33.43 5.57 27.86 5.57 22.29 5.57 16.71 5.57 11.14 5.57 5.57 5.57 0 0 0 0 5.57 0 11.14 0 16.71 0 22.29 0 27.86 0 33.43 0 39 0 44.57 0 50.14 0 55.71 0 61.29 0 66.86 0 72.43 5.57 72.43 5.57 72.43 11.14 72.43 11.14 72.43 16.71 72.43 22.28 72.43 27.85 72.43 27.86 72.43 33.42 72.43 33.42 72.43 39 72.43 39 72.43 44.57 72.43 50.14 72.43 55.71 72.43 55.71 72.43 61.28 72.43 61.28 72.43 66.85 72.43 66.85 72.43 72.42 72.43 72.42 72.43 77.99 72.43 83.56 72.43 83.56 66.86 77.99 66.86 72.42 66.86"/><polygon class="cls-1" points="22.28 61.29 27.85 61.29 27.85 55.71 27.85 50.14 27.85 44.57 22.28 44.57 22.28 50.14 22.28 55.71 16.7 55.71 16.7 50.14 16.7 44.57 16.7 39 22.28 39 27.85 39 27.85 33.43 22.28 33.43 16.7 33.43 16.7 27.86 16.7 22.29 16.7 16.71 22.28 16.71 22.28 22.29 22.28 27.86 27.85 27.86 27.85 22.29 27.85 16.71 27.85 11.14 22.28 11.14 16.7 11.14 11.13 11.14 11.13 16.71 11.13 22.29 11.13 27.86 11.13 33.43 11.13 39 11.13 44.57 11.13 50.14 11.13 55.71 11.13 61.29 16.7 61.29 22.28 61.29"/><polygon class="cls-1" points="66.85 27.86 66.85 33.43 66.85 39 66.85 44.57 66.85 50.14 72.42 50.14 72.42 44.57 72.42 39 72.42 33.43 72.42 27.86 72.42 22.29 72.42 16.71 72.42 11.14 66.85 11.14 61.27 11.14 55.7 11.14 55.7 16.71 55.7 22.29 55.7 27.86 55.7 33.43 55.7 39 61.27 39 61.27 33.43 61.27 27.86 61.27 22.29 61.27 16.71 66.85 16.71 66.85 22.29 66.85 27.86"/></g></svg>