<?xml version="1.0" encoding="UTF-8"?><svg id="Layer_2" xmlns="http://www.w3.org/2000/svg" viewBox="0 0 97.25 72.29"><defs><style>.cls-1{fill:#231815;}.cls-1,.cls-2,.cls-3{stroke-width:0px;}.cls-2{fill:#d5bbff;}.cls-3{fill:#7b22f4;}</style></defs><g id="Isolation_Mode"><path class="cls-3" d="M96,57.51h0c0,7.47-3.73,13.53-8.33,13.53H9.58c-4.6,0-8.33-6.06-8.33-13.53h94.75Z"/><path class="cls-1" d="M86.71,58.2c-.69,0-1.25-.56-1.25-1.25V4.08c0-.87-.71-1.58-1.58-1.58H13.36c-.87,0-1.58.71-1.58,1.58v52.86c0,.69-.56,1.25-1.25,1.25s-1.25-.56-1.25-1.25V4.08c0-2.25,1.83-4.08,4.08-4.08h70.52c2.25,0,4.08,1.83,4.08,4.08v52.86c0,.69-.56,1.25-1.25,1.25Z"/><path class="cls-1" d="M56.18,64.58h-15.11c-.69,0-1.25-.56-1.25-1.25s.56-1.25,1.25-1.25h15.11c.69,0,1.25.56,1.25,1.25s-.56,1.25-1.25,1.25Z"/><path class="cls-1" d="M87.66,72.29H9.58c-5.37,0-9.58-6.49-9.58-14.78,0-.69.56-1.25,1.25-1.25h94.75c.69,0,1.25.56,1.25,1.25,0,8.29-4.21,14.78-9.58,14.78ZM2.54,58.76c.37,6.09,3.45,11.03,7.04,11.03h78.08c3.6,0,6.67-4.93,7.05-11.03H2.54Z"/><path class="cls-1" d="M76.92,52.94H20.32c-2.25,0-4.08-1.83-4.08-4.08V12.04c0-2.25,1.83-4.08,4.08-4.08h56.6c2.25,0,4.08,1.83,4.08,4.08v36.82c0,2.25-1.83,4.08-4.08,4.08ZM20.32,10.46c-.87,0-1.58.71-1.58,1.58v36.82c0,.87.71,1.58,1.58,1.58h56.6c.87,0,1.58-.71,1.58-1.58V12.04c0-.87-.71-1.58-1.58-1.58H20.32Z"/><path class="cls-3" d="M33.07,35.74c0,1.7-1.37,3.07-3.07,3.07s-3.07-1.37-3.07-3.07,1.37-3.07,3.07-3.07,3.07,1.37,3.07,3.07Z"/><path class="cls-3" d="M71.3,22.45c0,1.69-1.37,3.07-3.07,3.07s-3.07-1.37-3.07-3.07,1.37-3.07,3.07-3.07,3.07,1.37,3.07,3.07Z"/><path class="cls-2" d="M58.3,32.67c0,1.69-1.37,3.07-3.07,3.07s-3.07-1.37-3.07-3.07,1.37-3.07,3.07-3.07,3.07,1.37,3.07,3.07Z"/><path class="cls-1" d="M30.01,40.06c-2.38,0-4.32-1.94-4.32-4.32s1.94-4.32,4.32-4.32,4.32,1.94,4.32,4.32-1.94,4.32-4.32,4.32ZM30.01,33.92c-1,0-1.82.82-1.82,1.82s.82,1.82,1.82,1.82,1.82-.82,1.82-1.82-.81-1.82-1.82-1.82Z"/><path class="cls-1" d="M43.4,29.6c-2.38,0-4.32-1.94-4.32-4.32s1.94-4.32,4.32-4.32,4.32,1.94,4.32,4.32-1.94,4.32-4.32,4.32ZM43.4,23.47c-1,0-1.82.82-1.82,1.82s.82,1.82,1.82,1.82,1.82-.82,1.82-1.82-.81-1.82-1.82-1.82Z"/><path class="cls-1" d="M68.24,26.77c-2.38,0-4.32-1.94-4.32-4.32s1.94-4.32,4.32-4.32,4.32,1.94,4.32,4.32-1.94,4.32-4.32,4.32ZM68.24,20.63c-1,0-1.82.82-1.82,1.82s.82,1.82,1.82,1.82,1.82-.82,1.82-1.82-.81-1.82-1.82-1.82Z"/><path class="cls-1" d="M55.23,36.99c-2.38,0-4.32-1.94-4.32-4.32s1.94-4.32,4.32-4.32,4.32,1.94,4.32,4.32-1.94,4.32-4.32,4.32ZM55.23,30.86c-1,0-1.82.82-1.82,1.82s.82,1.82,1.82,1.82,1.82-.82,1.82-1.82-.82-1.82-1.82-1.82Z"/><path class="cls-1" d="M32.44,35.13c-.38,0-.75-.17-.99-.49-.42-.55-.31-1.33.23-1.75l8.36-6.38c.55-.42,1.33-.31,1.75.24.42.55.31,1.33-.23,1.75l-8.36,6.38c-.23.17-.49.26-.76.26Z"/><path class="cls-1" d="M52.63,32.3c-.23,0-.46-.06-.66-.19l-6.62-4.14c-.58-.37-.76-1.14-.4-1.72.37-.59,1.14-.76,1.72-.4l6.62,4.14c.58.37.76,1.14.4,1.72-.24.38-.64.59-1.06.59Z"/><path class="cls-1" d="M58.06,31.7c-.37,0-.74-.16-.98-.48-.43-.54-.33-1.33.21-1.76l7.77-6.1c.54-.43,1.33-.33,1.76.21.43.54.33,1.33-.21,1.76l-7.77,6.1c-.23.18-.5.27-.77.27Z"/></g></svg>