<?xml version="1.0" encoding="UTF-8"?><svg id="Layer_2" xmlns="http://www.w3.org/2000/svg" viewBox="0 0 88.33 73.77"><defs><style>.cls-1{fill:#231815;}.cls-1,.cls-2,.cls-3,.cls-4{stroke-width:0px;}.cls-2{fill:#cdaeff;}.cls-3{fill:#7b22f4;}.cls-4{fill:#fff;}</style></defs><g id="Isolation_Mode"><path class="cls-1" d="M44.12,11.67c-.69,0-1.25-.56-1.25-1.25V1.52c0-.69.56-1.25,1.25-1.25s1.25.56,1.25,1.25v8.9c0,.69-.56,1.25-1.25,1.25Z"/><path class="cls-3" d="M30,23.62c-9.96,0-18.04,8.07-18.04,18.04s8.08,18.04,18.04,18.04c4.98,0,9.49-2.02,12.75-5.28l-12.75-12.75v-18.04Z"/><path class="cls-4" d="M42.75,28.9c-3.27-3.26-7.77-5.28-12.75-5.28v18.04l12.75-12.75Z"/><path class="cls-2" d="M42.75,28.9l-12.75,12.75,12.75,12.75c3.27-3.26,5.28-7.77,5.28-12.75s-2.02-9.49-5.28-12.75Z"/><path class="cls-1" d="M85.22,69.27H2.77V14.12h82.45v55.15ZM5.27,66.77h77.45V16.62H5.27v50.15Z"/><path class="cls-1" d="M86.04,16.45H2.29c-1.26,0-2.29-1.03-2.29-2.29v-2.42c0-1.26,1.03-2.29,2.29-2.29h83.75c1.26,0,2.29,1.03,2.29,2.29v2.42c0,1.26-1.03,2.29-2.29,2.29ZM2.5,13.95h83.33v-2H2.5v2Z"/><path class="cls-1" d="M86.04,73.77H2.29c-1.26,0-2.29-1.03-2.29-2.29v-2.42c0-1.26,1.03-2.29,2.29-2.29h83.75c1.26,0,2.29,1.03,2.29,2.29v2.42c0,1.26-1.03,2.29-2.29,2.29ZM2.5,71.27h83.33v-2H2.5v2Z"/><path class="cls-1" d="M30,60.94c-10.63,0-19.29-8.65-19.29-19.29s8.65-19.29,19.29-19.29c.69,0,1.25.56,1.25,1.25v17.52l12.39,12.39c.23.23.37.55.37.88s-.13.65-.37.88c-3.65,3.64-8.49,5.65-13.64,5.65ZM28.75,24.91c-8.67.64-15.54,7.9-15.54,16.74s7.53,16.79,16.79,16.79c4.06,0,7.9-1.44,10.95-4.07l-11.83-11.84c-.23-.23-.37-.55-.37-.88v-16.74Z"/><path class="cls-1" d="M30,42.9c-.16,0-.32-.03-.48-.09-.47-.19-.77-.65-.77-1.16v-18.04c0-.69.56-1.25,1.25-1.25,5.15,0,9.99,2.01,13.64,5.65.23.23.37.55.37.88s-.13.65-.37.88l-12.75,12.75c-.24.24-.56.37-.88.37ZM31.25,24.91v13.72l9.7-9.7c-2.73-2.36-6.11-3.76-9.7-4.02Z"/><path class="cls-1" d="M42.75,55.66c-.32,0-.64-.12-.88-.37l-12.75-12.75c-.49-.49-.49-1.28,0-1.77l12.75-12.75c.49-.49,1.28-.49,1.77,0,3.64,3.64,5.65,8.48,5.65,13.64s-2.01,10-5.65,13.64c-.24.24-.56.37-.88.37ZM31.76,41.65l10.95,10.95c2.63-3.04,4.06-6.89,4.06-10.95s-1.43-7.91-4.06-10.95l-10.95,10.95Z"/><path class="cls-3" d="M74.29,35.36h-16.62c-.69,0-1.25-.56-1.25-1.25s.56-1.25,1.25-1.25h16.62c.69,0,1.25.56,1.25,1.25s-.56,1.25-1.25,1.25Z"/><path class="cls-3" d="M74.29,43.88h-16.62c-.69,0-1.25-.56-1.25-1.25s.56-1.25,1.25-1.25h16.62c.69,0,1.25.56,1.25,1.25s-.56,1.25-1.25,1.25Z"/><path class="cls-3" d="M74.29,51.98h-16.62c-.69,0-1.25-.56-1.25-1.25s.56-1.25,1.25-1.25h16.62c.69,0,1.25.56,1.25,1.25s-.56,1.25-1.25,1.25Z"/><path class="cls-1" d="M49.41,2.5h-10.49c-.69,0-1.25-.56-1.25-1.25s.56-1.25,1.25-1.25h10.49c.69,0,1.25.56,1.25,1.25s-.56,1.25-1.25,1.25Z"/></g></svg>