<?xml version="1.0" encoding="UTF-8"?><svg id="Layer_2" xmlns="http://www.w3.org/2000/svg" viewBox="0 0 60.63 81.02"><defs><style>.cls-1{fill:#231815;}.cls-1,.cls-2{stroke-width:0px;}.cls-2{fill:#7b22f4;}</style></defs><g id="Isolation_Mode"><path class="cls-2" d="M40.9,73.87v4.94c0,.53-.49.96-1.08.96h-18.99c-.6,0-1.09-.43-1.09-.96v-4.94"/><path class="cls-2" d="M16.79,68.01h27.04c.53,0,.96.43.96.96v3.03c0,.53-.43.96-.96.96h-27.04c-.53,0-.96-.43-.96-.96v-3.04c0-.53.43-.96.96-.96Z"/><path class="cls-1" d="M39.81,81.02h-18.99c-1.29,0-2.34-.99-2.34-2.21v-4.94c0-.69.56-1.25,1.25-1.25s1.25.56,1.25,1.25v4.65h18.66v-4.65c0-.69.56-1.25,1.25-1.25s1.25.56,1.25,1.25v4.94c0,1.22-1.05,2.21-2.33,2.21Z"/><path class="cls-1" d="M44.19,68.93s-.09,0-.14,0c-.69-.08-1.18-.69-1.1-1.38.66-5.95,4.14-11.5,7.2-16.4,1.03-1.64,2-3.19,2.84-4.71.02-.04.04-.08.07-.11.96-1.37,1.81-2.82,2.5-4.33,0-.02.02-.04.03-.06,1.69-3.66,2.55-7.57,2.55-11.62,0-15.34-12.48-27.82-27.81-27.82S2.5,14.98,2.5,30.32c0,4.05.86,7.96,2.55,11.62.01.03.03.06.04.1.73,1.54,1.55,2.96,2.49,4.29.03.04.05.08.07.11.84,1.52,1.81,3.07,2.84,4.72,3.06,4.89,6.53,10.44,7.19,16.38.08.69-.42,1.3-1.1,1.38-.69.08-1.3-.42-1.38-1.1-.6-5.38-3.77-10.44-6.83-15.34-1.03-1.65-2.01-3.22-2.88-4.77-1.02-1.45-1.92-3.01-2.68-4.63-.02-.03-.03-.06-.04-.08-.02-.04-.04-.08-.05-.12-1.81-3.96-2.73-8.19-2.73-12.57C0,13.6,13.6,0,30.32,0s30.31,13.6,30.31,30.32c0,4.37-.91,8.59-2.72,12.54-.03.08-.06.15-.1.23-.74,1.58-1.64,3.15-2.68,4.63-.86,1.55-1.84,3.11-2.87,4.76-3.07,4.9-6.24,9.96-6.84,15.35-.07.64-.61,1.11-1.24,1.11Z"/><path class="cls-2" d="M52.59,25.58c-.6,0-1.13-.43-1.23-1.04-1.99-11.95-12.98-14.92-13.45-15.04-.67-.17-1.07-.85-.9-1.52.17-.67.85-1.07,1.52-.9.13.03,13.03,3.47,15.3,17.06.11.68-.35,1.33-1.03,1.44-.07.01-.14.02-.21.02Z"/><path class="cls-1" d="M33.56,65.73c-.67,0-1.23-.54-1.25-1.22-.02-.67-.26-11.71,2.8-20.84l-.69.05c-3.21.24-6.26.11-8.82-.05h-.08c3.06,9.13,2.82,20.17,2.8,20.84-.02.69-.59,1.23-1.28,1.22-.69-.02-1.23-.59-1.22-1.28,0-.16.26-12.06-3-20.94-7.18-.71-11.38-4.04-12.39-7.26-.53-1.68-.12-3.27,1.06-4.13.79-.58,3.09-1.62,7.34,1.34,2.51,1.75,4.36,4.5,5.72,7.67.17,0,.35.01.52.02l.68.04c2.48.16,5.43.29,8.48.05l1.27-.09c.19,0,.39-.01.58-.02,1.36-3.17,3.21-5.93,5.72-7.67,4.25-2.95,6.55-1.92,7.34-1.34,1.18.87,1.59,2.45,1.06,4.13-1.01,3.22-5.2,6.54-12.39,7.26-3.26,8.89-3,20.78-3,20.95.02.69-.53,1.26-1.22,1.28-.01,0-.02,0-.03,0ZM13.69,33.94c-.35,0-.59.08-.72.17-.35.26-.31.88-.15,1.37.5,1.59,2.98,4.42,8.87,5.35-1.11-2.22-2.51-4.11-4.29-5.34-1.74-1.21-2.97-1.55-3.71-1.55ZM46.94,33.94c-.74,0-1.97.34-3.71,1.55-1.78,1.23-3.18,3.12-4.28,5.34,5.9-.94,8.37-3.76,8.87-5.35.16-.49.2-1.11-.15-1.37-.13-.1-.37-.17-.72-.17Z"/><path class="cls-1" d="M43.84,74.21h-27.04c-1.22,0-2.21-.99-2.21-2.21v-3.03c0-1.22.99-2.21,2.21-2.21h27.04c1.22,0,2.21.99,2.21,2.21v3.03c0,1.22-.99,2.21-2.21,2.21ZM17.09,71.71h26.46v-2.45h-26.46v2.45Z"/><path class="cls-2" d="M53.55,29.73c-.57,0-1.08-.39-1.22-.96l-.31-1.32c-.16-.67.26-1.35.93-1.5.67-.16,1.34.26,1.5.93l.31,1.32c.16.67-.26,1.35-.93,1.5-.1.02-.19.03-.29.03Z"/></g></svg>