<?xml version="1.0" encoding="UTF-8"?><svg id="Layer_2" xmlns="http://www.w3.org/2000/svg" viewBox="0 0 65.91 91.43"><defs><style>.cls-1{fill:#231815;}.cls-1,.cls-2{stroke-width:0px;}.cls-2{fill:#7b22f4;}</style></defs><g id="Isolation_Mode"><path class="cls-2" d="M62.24,12.21h-11.92v6.27c0,.17-.02.33-.06.48h5.33c1,0,1.81.81,1.81,1.81v60.33c0,1-.81,1.81-1.81,1.81H10.33c-1,0-1.81-.81-1.81-1.81V20.77c0-1,.81-1.81,1.81-1.81h5.33c-.04-.16-.06-.32-.06-.48v-6.27H3.67c-1.33,0-2.42,1.08-2.42,2.42v72.61c0,1.34,1.08,2.42,2.42,2.42h58.57c1.34,0,2.42-1.08,2.42-2.42V14.63c0-1.34-1.08-2.42-2.42-2.42Z"/><path class="cls-1" d="M62.24,91.43H3.67c-2.02,0-3.67-1.65-3.67-3.67V15.15c0-2.02,1.65-3.67,3.67-3.67h11.92v2.5H3.67c-.64,0-1.17.53-1.17,1.17v72.61c0,.65.52,1.17,1.17,1.17h58.57c.65,0,1.17-.52,1.17-1.17V15.15c0-.65-.53-1.17-1.17-1.17h-11.92v-2.5h11.92c2.02,0,3.67,1.65,3.67,3.67v72.61c0,2.02-1.65,3.67-3.67,3.67Z"/><path class="cls-1" d="M55.59,84.68H10.33c-1.69,0-3.06-1.37-3.06-3.06V21.29c0-1.69,1.37-3.06,3.06-3.06h5.26v2.5h-5.26c-.31,0-.56.25-.56.56v60.33c0,.31.25.56.56.56h45.26c.31,0,.56-.25.56-.56V21.29c0-.31-.25-.56-.56-.56h-5.27v-2.5h5.27c1.69,0,3.06,1.37,3.06,3.06v60.33c0,1.69-1.37,3.06-3.06,3.06Z"/><path class="cls-1" d="M48.24,22.34h-30.57c-1.84,0-3.33-1.5-3.33-3.33v-8.03c0-1.84,1.5-3.34,3.33-3.34h6.48c.61-4.31,4.32-7.64,8.8-7.64s8.2,3.33,8.81,7.64h6.48c1.84,0,3.33,1.5,3.33,3.34v8.03c0,1.84-1.5,3.33-3.33,3.33ZM17.67,10.14c-.46,0-.83.37-.83.84v8.03c0,.46.37.83.83.83h30.57c.46,0,.83-.37.83-.83v-8.03c0-.46-.37-.84-.83-.84h-8.89v-1.25c0-3.52-2.87-6.39-6.39-6.39s-6.39,2.87-6.39,6.39v1.25h-8.89Z"/><path class="cls-1" d="M32.96,13.96c-2.6,0-4.72-2.12-4.72-4.72s2.12-4.72,4.72-4.72,4.72,2.12,4.72,4.72-2.12,4.72-4.72,4.72ZM32.96,7.01c-1.23,0-2.22,1-2.22,2.22s1,2.22,2.22,2.22,2.22-1,2.22-2.22-1-2.22-2.22-2.22Z"/><path class="cls-2" d="M21.31,40.72l-5.29-6.35c-.44-.53-.37-1.32.16-1.76.53-.44,1.32-.37,1.76.16l2.93,3.52,4.12-7.59c.33-.61,1.09-.83,1.69-.5.61.33.83,1.09.5,1.69l-5.88,10.83Z"/><path class="cls-1" d="M48.82,31.94h-14.41c-.69,0-1.25-.56-1.25-1.25s.56-1.25,1.25-1.25h14.41c.69,0,1.25.56,1.25,1.25s-.56,1.25-1.25,1.25Z"/><path class="cls-1" d="M48.82,38.36h-14.41c-.69,0-1.25-.56-1.25-1.25s.56-1.25,1.25-1.25h14.41c.69,0,1.25.56,1.25,1.25s-.56,1.25-1.25,1.25Z"/><path class="cls-2" d="M21.31,58.24l-5.29-6.35c-.44-.53-.37-1.32.16-1.76.53-.44,1.32-.37,1.76.16l2.93,3.52,4.12-7.59c.33-.61,1.09-.83,1.69-.5.61.33.83,1.09.5,1.69l-5.88,10.83Z"/><path class="cls-1" d="M48.82,49.45h-14.41c-.69,0-1.25-.56-1.25-1.25s.56-1.25,1.25-1.25h14.41c.69,0,1.25.56,1.25,1.25s-.56,1.25-1.25,1.25Z"/><path class="cls-1" d="M48.82,55.88h-14.41c-.69,0-1.25-.56-1.25-1.25s.56-1.25,1.25-1.25h14.41c.69,0,1.25.56,1.25,1.25s-.56,1.25-1.25,1.25Z"/><path class="cls-2" d="M21.31,75.04l-5.29-6.35c-.44-.53-.37-1.32.16-1.76.53-.44,1.32-.37,1.76.16l2.93,3.52,4.12-7.59c.33-.61,1.09-.83,1.69-.5.61.33.83,1.09.5,1.7l-5.88,10.83Z"/><path class="cls-1" d="M48.82,66.26h-14.41c-.69,0-1.25-.56-1.25-1.25s.56-1.25,1.25-1.25h14.41c.69,0,1.25.56,1.25,1.25s-.56,1.25-1.25,1.25Z"/><path class="cls-1" d="M48.82,72.69h-14.41c-.69,0-1.25-.56-1.25-1.25s.56-1.25,1.25-1.25h14.41c.69,0,1.25.56,1.25,1.25s-.56,1.25-1.25,1.25Z"/></g></svg>