<?xml version="1.0" encoding="UTF-8"?><svg id="Layer_2" xmlns="http://www.w3.org/2000/svg" xmlns:xlink="http://www.w3.org/1999/xlink" viewBox="0 0 1097 974.27"><defs><style>.cls-1{fill:#7165ba;}.cls-1,.cls-2,.cls-3,.cls-4,.cls-5,.cls-6,.cls-7,.cls-8,.cls-9,.cls-10,.cls-11,.cls-12,.cls-13,.cls-14,.cls-15,.cls-16,.cls-17,.cls-18,.cls-19,.cls-20,.cls-21,.cls-22,.cls-23,.cls-24,.cls-25,.cls-26,.cls-27,.cls-28,.cls-29{stroke-width:0px;}.cls-2{fill:#1e1e1d;}.cls-3{fill:#546ccf;}.cls-4{fill:#79318c;}.cls-5{fill:#007982;}.cls-6{fill:#ff9d9b;}.cls-7{fill:#7d5326;}.cls-30{fill:#ffd7de;stroke:#3b3b3b;stroke-width:.45px;}.cls-30,.cls-31,.cls-32,.cls-33,.cls-34,.cls-35{stroke-linecap:round;}.cls-30,.cls-31,.cls-32,.cls-34{stroke-linejoin:round;}.cls-8{fill:#ff717a;}.cls-9{fill:#475a8b;}.cls-10{fill:#f99191;}.cls-11{fill:#181818;}.cls-31{fill:#ffc5ba;stroke:#000;stroke-width:.56px;}.cls-12{fill:#714210;}.cls-32{stroke-width:.76px;}.cls-32,.cls-33,.cls-34,.cls-35{fill:none;stroke:#181818;}.cls-33{stroke-width:.5px;}.cls-33,.cls-36,.cls-35{stroke-miterlimit:10;}.cls-13{fill:#728de0;}.cls-37{filter:url(#drop-shadow-2);}.cls-38{filter:url(#drop-shadow-1);}.cls-14{fill:#848484;}.cls-15{fill:#000;}.cls-16{fill:#ededed;}.cls-36{stroke:#221f1f;stroke-width:.96px;}.cls-36,.cls-28{fill:#fff;}.cls-17{fill:#796da2;}.cls-34,.cls-35{stroke-width:.72px;}.cls-18{fill:#ffccc5;}.cls-19{fill:#ffb3b3;}.cls-20{fill:#ffe300;}.cls-21{fill:#fbeb92;}.cls-22{fill:#97b6f4;}.cls-23{fill:#7b22f4;}.cls-24{fill:#bfcbf0;}.cls-25{fill:#ffc6bb;}.cls-26{fill:#1b83d4;}.cls-27{fill:#243157;}.cls-29{fill:#140700;}</style><filter id="drop-shadow-1" filterUnits="userSpaceOnUse"><feOffset dx="0" dy="10"/><feGaussianBlur result="blur" stdDeviation="10"/><feFlood flood-color="#40187f" flood-opacity=".7"/><feComposite in2="blur" operator="in"/><feComposite in="SourceGraphic"/></filter><filter id="drop-shadow-2" filterUnits="userSpaceOnUse"><feOffset dx="0" dy="10"/><feGaussianBlur result="blur-2" stdDeviation="10"/><feFlood flood-color="#40187f" flood-opacity=".7"/><feComposite in2="blur-2" operator="in"/><feComposite in="SourceGraphic"/></filter></defs><g id="Layer_1-2"><path class="cls-18" d="M405.93,26.26c.58-.67,1.09-1.39,1.51-2.15,2.07-3.78,1.86-8.41-.35-12.11l-1.88-3.16c.06-.24.1-.48.12-.74l.06-1.38c.08-1.91-1.42-3.54-3.34-3.62-1-.04-1.92.36-2.59,1.02l-.5-1.58c-.64-2.05-2.94-3.1-4.91-2.22l-12.28,5.23c-3,1.28-4.67,4.45-4.1,7.59.08.47.24.93.42,1.37l8.94,22.13,4.85,15.45,20.19-6.33-6.12-19.5Z"/><line class="cls-30" x1="393.16" y1="10.36" x2="393.15" y2="10.36"/><path class="cls-34" d="M388.22,5.55l6.15-2.71c1.97-.87,4.26.17,4.9,2.22l.84,2.68h0s.16.52.16.52c.05.15.08.29.11.43,0,.05.02.11.03.16l.06.49c.01.14.02.28.01.42,0,.08,0,.15-.01.23l-.02.24c0,.07,0,.14-.02.21-.02.08-.03.17-.05.25-.03.14-.07.28-.12.42"/><path class="cls-34" d="M400.06,14.84c.09-.16.18-.33.24-.5.06-.16.11-.34.15-.51.18-.8.14-1.65-.1-2.44l-.08-.26-.61-1.93-.32-1.02c-.64-2.05-2.94-3.1-4.9-2.22l-6.06,2.67"/><path class="cls-34" d="M393.81,18.96c.16.24.35.46.58.66.43.4.95.69,1.55.84.66.16,1.32.13,1.93-.06.22-.07.43-.16.62-.27.75-.39,1.34-1.04,1.67-1.87.06-.16.11-.34.15-.51.18-.8.14-1.65-.1-2.44l-1.01-3.21c-.19-.61-.53-1.12-.96-1.53-1.01-.97-2.56-1.31-3.95-.7l-.25.11-.89.39h0s-4.55,2.02-4.55,2.02"/><line class="cls-34" x1="393.81" y1="18.96" x2="395.12" y2="16.6"/><path class="cls-18" d="M401.7,11.44h0c-1.91-.08-3.41-1.71-3.34-3.62l.06-1.38c.08-1.91,1.71-3.41,3.62-3.34h0c1.91.08,3.41,1.71,3.34,3.62l-.06,1.38c-.08,1.91-1.71,3.41-3.62,3.34Z"/><path class="cls-18" d="M401.42,26.28c-.29-1.07-1.4-4.69-4.98-7.1-2.08-1.4-4.14-1.82-5.31-1.96l-5.93,1.86,3.51,11.18,12.71-3.99Z"/><path class="cls-34" d="M401.42,26.28c-.29-1.07-1.4-4.69-4.98-7.1-2.08-1.4-4.14-1.82-5.31-1.96"/><path class="cls-34" d="M405.38,6.72l-.06,1.38c-.08,1.91-1.71,3.41-3.62,3.34h0c-1.91-.08-3.41-1.71-3.34-3.62l.06-1.38c.04-1.07.57-2.01,1.37-2.62"/><path class="cls-1" d="M550.66,172.89l-32.29-43.89c-5.01-6.81-13.09-10.67-21.53-10.28l-32.95,1.49-15.57,4.72-37.42-93.82-25.18,7.9,34.84,99.27,17.63,67.86h0l-7.17,56.47h102.26l-7.86-83.02,25.25-6.69Z"/><polygon class="cls-28" points="385.72 39 389.57 51.27 415.8 43.39 410.9 31.11 385.72 39"/><polygon class="cls-19" points="477.18 101.67 446.4 107.8 457.18 142.92 469.39 146.99 475.18 145.31 481.25 136.18 477.18 101.67"/><path class="cls-28" d="M469.39,146.99l-12.36-9.57-3.52-4.21-3.62,4.75,12.83,14.07c.67.73,1.82.71,2.46-.05l4.2-4.99Z"/><path class="cls-28" d="M475.18,145.33l3.11-15.32-.08-5.48,5.84,1.23-.53,19.04c-.03.99-.92,1.73-1.89,1.57l-6.44-1.04Z"/><path class="cls-19" d="M434.39,111.76c-4.04,1.06-6.65,5.15-5.65,9.2.72,2.88,2.99,4.95,5.69,5.56,1.23.27,2.38.87,3.17,1.85,1.19,1.46,3.16,2.17,5.1,1.66,2.55-.67,4.1-3.21,3.6-5.76h.02s-1.72-6.55-1.72-6.55c-1.17-4.46-5.74-7.13-10.21-5.95h0Z"/><path class="cls-19" d="M481.41,99.39c4.04-1.06,8.32,1.2,9.44,5.23.79,2.86-.17,5.78-2.22,7.64-.93.84-1.64,1.93-1.85,3.17-.32,1.86-1.68,3.45-3.62,3.96-2.55.67-5.15-.77-5.97-3.24h-.01s-1.72-6.54-1.72-6.54c-1.17-4.46,1.49-9.03,5.95-10.21h0Z"/><path class="cls-18" d="M466.77,139.31h0c-11.56,3.04-23.51-3.93-26.55-15.49l-3.21-12.18c-3.04-11.56,3.93-23.51,15.49-26.55h0c11.56-3.04,23.51,3.93,26.55,15.49l3.21,12.18c3.04,11.56-3.93,23.51-15.49,26.55Z"/><path class="cls-28" d="M467.37,120.14c.46-.12.9.13.94.53.2,2.45-1.73,4.87-4.63,5.63-2.9.76-5.77-.4-6.8-2.63-.17-.36.1-.8.56-.92l9.94-2.62Z"/><path class="cls-15" d="M456.1,117.48c.37,1.4-.47,2.84-1.87,3.21-1.4.37-2.84-.47-3.21-1.87-.37-1.4.47-2.84,1.87-3.21,1.4-.37,2.84.47,3.21,1.87Z"/><path class="cls-15" d="M471.48,113.43c.37,1.4-.47,2.84-1.87,3.21-1.4.37-2.84-.47-3.21-1.87-.37-1.4.47-2.84,1.87-3.21,1.4-.37,2.84.47,3.21,1.87Z"/><path class="cls-15" d="M472.84,87.62c-5.31-3.97-10.76-5.84-14.03-5.13-.16-.16-.33-.31-.51-.44-4.16-2.84-12.61,2.31-18.88,11.5-6.27,9.19-7.98,18.94-3.82,21.78s12.61-2.31,18.88-11.5c1.21-1.77,2.24-3.55,3.1-5.31.57,1.46,1.38,2.88,2.52,4.15,3.89,4.08,10.72,3.75,11.33,2.99.53-.67-4.28-.89-7.79-5.23-1.08-1.34-1.87-2.82-2.46-4.31,1.3,1.36,2.79,2.7,4.45,3.95,7.14,5.34,14.55,6.89,16.55,3.46,2-3.43-2.17-10.55-9.32-15.89Z"/><path class="cls-35" d="M461.28,114.27l2.6,4.1c.25.39.04.91-.4,1.03l-2.9.76"/><polygon class="cls-5" points="432.27 475.79 433.81 445.9 398.76 445.9 393.82 483.85 429.8 481.17 432.27 475.79"/><path class="cls-14" d="M367.31,486.12l7.67-1.55c9.93-2,10.06-7.13,16.97-14.61,2.06-2.23,4.9-3.51,7.89-3.51,3.66,0,6.81,2.21,8.26,5.39,1.1,2.41,3.46,3.95,6.06,3.95h18.11v25.46h-79.42c1.3-7.62,7.05-13.64,14.47-15.13Z"/><polygon class="cls-5" points="496.93 475.79 495.38 445.9 530.43 445.9 535.37 483.85 499.39 481.17 496.93 475.79"/><path class="cls-14" d="M561.88,486.12l-7.67-1.55c-9.93-2-10.06-7.13-16.97-14.61-2.06-2.23-4.9-3.51-7.89-3.51-3.66,0-6.81,2.21-8.26,5.39-1.1,2.41-3.46,3.95-6.06,3.95h-18.11v25.46h79.42c-1.3-7.62-7.05-13.64-14.47-15.13Z"/><path class="cls-27" d="M546.7,478.21l-10.45-185.87c-1.13-19.83-7.03-38.77-16.94-54.4v-9.07h-71.29l-1.3,8.77c-12.35,15.69-16.22,34.74-20.31,54.71l-44.34,185.87h60.23l39.62-177.75,10.09,177.75h54.69Z"/><line class="cls-34" x1="506.46" y1="159.1" x2="528.22" y2="190.62"/><rect class="cls-22" x="460.9" y="246.01" width="285.6" height="378.67"/><path class="cls-18" d="M664.85,32.93l-12.63-5.64c-2.03-.95-4.43.1-5.13,2.21l-.54,1.63c-.68-.7-1.62-1.13-2.66-1.1-1.98.05-3.57,1.71-3.52,3.69l.03,1.44c0,.26.05.52.11.77l-2.01,3.24c-2.36,3.8-2.66,8.59-.59,12.54.42.8.93,1.55,1.52,2.25l-6.69,20.09,20.8,6.93,5.3-15.92,9.66-22.77c.19-.46.36-.93.46-1.41.64-3.24-1.03-6.56-4.11-7.94Z"/><path class="cls-34" d="M658.15,32.82l-6.33-2.92c-2.03-.94-4.42.1-5.12,2.21l-.92,2.77h0s-.18.54-.18.54c-.05.15-.09.3-.13.44,0,.05-.03.12-.03.17l-.07.51c-.01.14-.03.28-.02.43,0,.08,0,.16.01.24l.02.24c0,.07,0,.15.02.22.02.08.03.18.05.26.03.15.07.29.12.43"/><path class="cls-34" d="M645.72,42.23c-.09-.17-.18-.34-.24-.52-.06-.17-.11-.35-.15-.54-.17-.84-.12-1.71.15-2.53l.09-.26.66-1.99.35-1.05c.7-2.12,3.1-3.16,5.12-2.21l6.23,2.88"/><path class="cls-34" d="M657.64,39.88l-4.68-2.17h0s-.91-.42-.91-.42l-.25-.12c-1.43-.66-3.04-.33-4.11.66-.45.41-.81.94-1.02,1.57l-1.1,3.31c-.27.81-.33,1.69-.15,2.53.04.18.09.37.15.54.32.86.93,1.55,1.7,1.97.2.12.41.22.64.29.63.21,1.32.26,2,.1.62-.14,1.17-.43,1.62-.84.24-.2.44-.43.61-.68l1.11-.25"/><line class="cls-34" x1="652.12" y1="46.61" x2="650.81" y2="44.14"/><path class="cls-18" d="M644.09,38.67h0c1.98-.05,3.57-1.71,3.52-3.69l-.03-1.44c-.05-1.98-1.71-3.57-3.69-3.52h0c-1.98.05-3.57,1.71-3.52,3.69l.03,1.44c.05,1.98,1.71,3.57,3.69,3.52Z"/><path class="cls-18" d="M644.1,54.06c.32-1.11,1.54-4.83,5.29-7.26,2.18-1.41,4.32-1.81,5.54-1.93l6.11,2.03-3.84,11.53-13.1-4.36Z"/><path class="cls-34" d="M644.1,54.06c.32-1.11,1.54-4.83,5.29-7.26,2.18-1.41,4.32-1.81,5.54-1.93"/><path class="cls-34" d="M640.36,33.72l.03,1.44c.05,1.98,1.71,3.57,3.69,3.52h0c1.98-.05,3.57-1.71,3.52-3.69l-.03-1.44c-.02-.94-.41-1.8-1.03-2.43"/><path class="cls-13" d="M661.05,67.21l-24.83-9.51-56.84,101.33h-25.7c-10.92,0-20.97,5.94-26.23,15.51l-27.44,46.79c-6.36,11.55,2.67,25.54,15.82,24.51l3.82-.3-.32,1.53h80.42l11.46-60.56,49.85-119.29Z"/><polygon class="cls-28" points="728.76 240.69 616.69 240.69 653.66 181.22 765.73 181.22 728.76 240.69"/><path class="cls-28" d="M555.08,240.69h173.69v7.55h-176.91v-4.33c0-1.78,1.44-3.22,3.22-3.22Z"/><path class="cls-31" d="M607.94,238.72s-.09-.05-.14-.08"/><path class="cls-25" d="M590.58,220.34l-15.31.88-25.57-1.45-1.34,18.06,20.26-.9,2.35,1.64c3.34,2.33,7.7,2.62,11.32.76l.13-.07,4.84,4.11,1.07.92c.26.22.53.38.82.48.28.12.58.17.88.17.22.01.45-.01.65-.05.08-.02.15-.05.2-.06.15-.05.29-.1.44-.17.07-.03.14-.07.21-.12.12-.06.24-.15.34-.25.09-.06.13-.12.2-.18.05-.05.1-.08.15-.13.03-.05.04-.09.07-.13.06-.09.13-.14.19-.23.06-.11.07-.23.13-.34.05-.15.12-.28.16-.44.03-.14.04-.3.04-.46.02-.2.02-.39,0-.61-.02-.08-.05-.15-.06-.2-.08-.28-.14-.52-.29-.76-.03-.05-.1-.1-.13-.17-.14-.19-.23-.38-.42-.54l-.09-.08-1.28-1.09-2.37-2.02,1.52-.8,9.84,2.58,4.22,2.37c.43.27.9.4,1.36.41.43.01.85-.07,1.22-.25.27-.13.51-.28.74-.48.17-.15.34-.34.47-.57.13-.22.21-.43.28-.66.01-.04.02-.08.03-.12l.1-.68c.36.18.73.29,1.09.32.04,0,.08.02.14.01.24.01.49-.02.71-.07.09-.02.16-.07.24-.09.15-.05.31-.1.45-.19.09-.04.15-.11.24-.17.12-.08.24-.17.36-.27.06-.07.12-.16.2-.26.06-.09.16-.17.22-.28.03-.03.03-.06.06-.09,0-.02.01-.02.03-.05.03-.06.05-.13.06-.17.04-.11.1-.2.12-.28,0-.06.04-.11.04-.17.3-1.14-.17-2.37-1.22-3.02l-.03-.03.04.03c.06-.09.06-.21.1-.29.05-.13.1-.26.14-.38.04-.2.06-.4.05-.6,0-.14,0-.26,0-.39-.02-.21-.11-.43-.19-.65-.02-.09-.04-.21-.1-.31-.14-.3-.33-.58-.6-.82l-1.46-1.41-1.65-1.33c-1.87-1.51-3.91-2.79-6.08-3.82l-5.82-2.76c-1.4-.67-2.95-.97-4.5-.88Z"/><path class="cls-34" d="M607.52,240.19c.8-1.29.4-2.99-.9-3.79l-7.6-4.29-8.94-1.55"/><line class="cls-34" x1="590.53" y1="238.94" x2="584.19" y2="233.55"/><line class="cls-34" x1="580.63" y1="237.75" x2="582.8" y2="239.6"/><polyline class="cls-34" points="594.7 226.6 604.04 230.29 610.69 233.96 610.69 233.97"/><path class="cls-6" d="M611.37,124.7c4,.12,7.33,3.36,7.26,7.36-.04,2.85-1.72,5.27-4.11,6.42-1.08.52-2.03,1.33-2.56,2.41-.79,1.62-2.48,2.71-4.4,2.66-2.53-.07-4.53-2.1-4.61-4.6h-.01s.19-6.48.19-6.48c.13-4.42,3.81-7.9,8.23-7.77h0Z"/><polygon class="cls-6" points="563.64 161.63 585.06 174.1 590.84 168.64 596.79 130.66 567.72 129.71 563.64 161.63"/><path class="cls-25" d="M588.01,159.25h0c12.15.35,22.38-9.3,22.73-21.45l.28-9.52c.35-12.15-9.3-22.38-21.45-22.73h0c-12.15-.35-22.38,9.3-22.73,21.45l-.28,9.52c-.35,12.15,9.3,22.38,21.45,22.73Z"/><path class="cls-15" d="M588.24,134.28c-.04,1.47-1.27,2.63-2.74,2.59-1.47-.04-2.63-1.27-2.59-2.74.04-1.47,1.27-2.63,2.74-2.59,1.47.04,2.63,1.27,2.59,2.74Z"/><path class="cls-15" d="M602.94,134.71c-.04,1.47-1.27,2.63-2.74,2.59-1.47-.04-2.63-1.27-2.59-2.74.04-1.47,1.27-2.63,2.74-2.59,1.47.04,2.63,1.27,2.59,2.74Z"/><path class="cls-35" d="M593.82,132.21l1.52,4.32c.15.43-.29.85-.88.83l-2.2-.06"/><path class="cls-35" d="M585.06,138.08c.51.71,1.91,2.44,4.38,3.25,4.08,1.33,7.57-1.01,8-1.31"/><path class="cls-7" d="M602.9,107.51c-3.18-2.22-6.85-3.67-10.73-4.18-.83-.11-1.68-.18-2.52-.2-6.52-.19-12.74,2.19-17.52,6.7-4.78,4.51-7.51,10.58-7.7,17.1l-.15,5.02,2.41.32.14-4.76c.34-11.86,9.79-21.72,21.65-21.96,1.15-.02,2.27.04,3.37.19,3.6.48,6.91,1.83,9.75,3.82.45-.67.88-1.35,1.31-2.04Z"/><path class="cls-25" d="M563.82,123.42c-4-.12-7.51,2.93-7.68,6.93-.12,2.84,1.41,5.36,3.73,6.65,1.05.58,1.95,1.45,2.42,2.56.7,1.66,2.32,2.85,4.24,2.91,2.53.07,4.64-1.84,4.87-4.32h.01s.19-6.48.19-6.48c.13-4.42-3.35-8.11-7.77-8.23h0Z"/><path class="cls-7" d="M611.34,112.69c-1.84-2.78-4.07-4.97-6.32-6.42-4.47-5.35-11.2-8.77-18.72-8.77-13.47,0-24.39,10.92-24.39,24.39,0,.58.02,1.14.06,1.71.37-.08.77-.14,1.17-.16.23-.02.46-.04.68-.02.35,0,.7.05,1.04.1.12.02.24.04.35.07.23.05.47.11.69.17.11.03.22.06.33.1,1.23.43,2.32,1.16,3.19,2.09-.24.8-.39,1.82-.39,2.95,0,2.54.73,4.59,1.62,4.59s1.62-2.06,1.62-4.59c0-.26-.01-.52-.03-.77,3.54-.45,7.71-1.9,11.85-4.29,4.66-2.69,8.32-6.04,10.41-9.21.57,2.29,1.63,4.73,3.18,7.08,4.4,6.65,11.03,10.01,14.8,7.51,3.77-2.5,3.26-9.91-1.15-16.56Z"/><circle class="cls-7" cx="574.78" cy="96.48" r="16.35" transform="translate(-6.79 134.64) rotate(-13.28)"/><line class="cls-34" x1="519.64" y1="245.53" x2="548.36" y2="239.6"/><line class="cls-34" x1="549.7" y1="219.77" x2="511.86" y2="219.77"/><line class="cls-34" x1="548.43" y1="185.39" x2="532.73" y2="219.71"/><path class="cls-28" d="M564.59,154.23l-6.03,7.83c-.79,1.03-.68,2.5.27,3.39l16.16,15.19c1,.94,2.55.92,3.52-.05l6.55-6.5-20.93-16.3.46-3.57Z"/><path class="cls-28" d="M585.06,174.1l4.68,3.69c1.43,1.12,3.54.43,4.02-1.32l3.5-12.75c.32-1.16-.22-2.38-1.29-2.93l-3.6-1.84-.59,3.76-6.71,11.4Z"/><polyline class="cls-34" points="620.93 244.46 656.65 185.87 757.55 185.87"/><line class="cls-34" x1="629.46" y1="240.69" x2="725.21" y2="240.69"/><path class="cls-18" d="M773.49,159.6l-11.18-37.77c-.22-.76-.49-1.51-.87-2.2-2.49-4.63-7.9-7.02-13.09-5.59l-21.24,5.85c-3.46.89-5.34,4.6-4.07,7.91l.98,2.56c-1.54-.17-3.14.26-4.39,1.34-2.39,2.07-2.66,5.71-.59,8.1l1.5,1.73c.28.32.58.59.91.84l.81,6.01c.95,7.05,5.42,13.25,11.98,16.01,1.32.56,2.72.96,4.15,1.23l12.12,31.47,32.58-12.55-9.6-24.94Z"/><path class="cls-34" d="M740,120.69l-10.73,2.82c-3.44.9-5.33,4.59-4.05,7.91l1.67,4.33v.02s.33.83.33.83c.09.24.19.46.3.67.05.07.08.17.13.24l.43.69c.13.19.26.38.41.55.07.1.15.2.26.29l.27.28c.07.08.16.18.24.25.11.09.22.19.33.28.19.15.39.29.58.42"/><path class="cls-34" d="M734.25,144.84c-.28-.11-.57-.24-.83-.39-.24-.15-.49-.32-.73-.51-1.06-.85-1.88-1.98-2.37-3.26l-.16-.41-1.2-3.12-.63-1.64c-1.28-3.31.61-7.02,4.05-7.91l10.57-2.78"/><path class="cls-34" d="M746.52,129.88l-7.95,2.07h-.02s-1.54.42-1.54.42l-.43.11c-2.42.64-4.08,2.67-4.38,4.96-.14.97-.05,1.97.34,2.96l1.99,5.18c.49,1.27,1.31,2.4,2.37,3.26.24.18.49.36.73.51,1.27.74,2.71.97,4.07.7.37-.05.73-.15,1.08-.29.99-.38,1.88-1.02,2.56-1.9.62-.81,1-1.72,1.15-2.67.09-.49.1-.97.06-1.45l1.11-1.43"/><line class="cls-34" x1="746.55" y1="143.74" x2="742.44" y2="142.04"/><path class="cls-18" d="M728.65,142.13h0c2.39-2.07,2.66-5.71.59-8.1l-1.5-1.73c-2.07-2.39-5.71-2.66-8.1-.59h0c-2.39,2.07-2.66,5.71-.59,8.1l1.5,1.73c2.07,2.39,5.71,2.66,8.1.59Z"/><path class="cls-18" d="M744.24,161.01c-.73-1.68-3-7.5-.86-14.28,1.25-3.95,3.48-6.59,4.85-7.99l9.57-3.68,6.95,18.05-20.52,7.9Z"/><path class="cls-34" d="M744.24,161.01c-.73-1.68-3-7.5-.86-14.28,1.25-3.95,3.48-6.59,4.85-7.99"/><path class="cls-34" d="M719.05,139.81l1.5,1.73c2.07,2.39,5.71,2.66,8.1.59h0c2.39-2.07,2.66-5.71.59-8.1l-1.5-1.73c-.98-1.14-2.32-1.79-3.72-1.95"/><line class="cls-34" x1="819.76" y1="796.68" x2="739.84" y2="796.68"/><line class="cls-34" x1="615.49" y1="799.28" x2="688.74" y2="799.28"/><polygon class="cls-5" points="738.66 773.91 736.91 739.97 776.7 739.97 782.31 783.07 741.46 780.01 738.66 773.91"/><path class="cls-14" d="M812.41,785.64l-8.71-1.75c-11.27-2.28-11.43-8.1-19.26-16.59-2.33-2.53-5.56-3.98-8.96-3.98-4.15,0-7.73,2.5-9.38,6.12-1.25,2.74-3.93,4.48-6.88,4.48h-20.56v28.91h90.18c-1.48-8.65-8-15.49-16.43-17.18Z"/><polygon class="cls-5" points="693.75 780.04 695.58 744.6 654.03 744.6 648.17 789.6 690.82 786.41 693.75 780.04"/><path class="cls-14" d="M616.74,792.29l9.1-1.83c11.77-2.38,11.93-8.46,20.11-17.32,2.44-2.64,5.81-4.16,9.36-4.16,4.33,0,8.07,2.61,9.79,6.39,1.3,2.86,4.1,4.68,7.18,4.68h21.47v30.18h-94.16c1.55-9.03,8.36-16.17,17.15-17.94Z"/><path class="cls-27" d="M794.61,775.05h-59.81l-23.35-247.61-17.67,247.61h-61.95l11.26-260.31c.9-19.67,5.78-38.79,14.16-55.8,2.63-5.37,5.63-10.52,8.95-15.42h94.04c2.81,4.14,5.38,8.47,7.7,12.95,9.15,17.62,14.46,37.64,15.42,58.27l11.26,260.31Z"/><path class="cls-34" d="M652.26,778.45c0,1.87-1.48,3.38-3.3,3.38h-11.35l9.57-6.24c2.2-1.43,5.08.18,5.08,2.86h0Z"/><path class="cls-34" d="M622.96,778.45c0,1.87,1.48,3.38,3.3,3.38h11.35l-9.57-6.24c-2.2-1.43-5.08.18-5.08,2.86h0Z"/><path class="cls-34" d="M806.2,778.45c0,1.87-1.48,3.38-3.3,3.38h-11.35l9.57-6.24c2.2-1.43,5.08.18,5.08,2.86h0Z"/><path class="cls-34" d="M776.89,778.45c0,1.87,1.48,3.38,3.3,3.38h11.35l-9.57-6.24c-2.2-1.43-5.08.18-5.08,2.86h0Z"/><line class="cls-34" x1="711.53" y1="529.09" x2="711.53" y2="498.34"/><line class="cls-34" x1="605.57" y1="796.68" x2="685.49" y2="796.68"/><line class="cls-34" x1="743.29" y1="796.68" x2="823.21" y2="796.68"/><rect class="cls-26" x="660.54" y="443.52" width="104.15" height="9.4"/><path class="cls-3" d="M808.27,232.81l-30.09-78.14-43.14,16.61,30.41,78.98-8.94,20.83c-5.28,12.3-16.82,20.75-30.14,22.08l-67.8,3.72c-13.42.74-25.94,7.01-34.56,17.32l-41.62,49.78c-9.16,10.95-8.95,26.94.49,37.65l42.24,47.93,22.86-29.08-28.77-33.74,30.73-31.55,2.56,51.6-1.83,57.34h126.25l-2.84-114.55,36.94-85.13c2.09-10.6,1.13-21.57-2.75-31.66Z"/><path class="cls-28" d="M776.93,464.15h-126.27c-.46,4.07-.92,8.14-1.37,12.21,10.36.12,22.87-.7,36.37-3.78,7.26-1.66,13.74-3.73,19.44-5.94,3.72-1.44,7.83-1.45,11.6-.14,6.5,2.26,14.05,4.39,22.12,6.08,14.7,3.08,28.31,3.9,39.6,3.78-.5-4.07-1-8.14-1.5-12.21Z"/><path class="cls-4" d="M733.06,325.72l-.04.08c-.76-.25-.68-.26.04-.08Z"/><path class="cls-28" d="M778.93,154.38c3.04,6.36,6.08,12.72,9.12,19.08-5.14,3.95-12.8,8.97-22.97,12.82-9.74,3.69-18.45,5.06-24.76,5.56l-6.03-20.27,44.64-17.19Z"/><path class="cls-34" d="M744.57,179.27c.54,1.41,2.13,2.12,3.54,1.57s2.12-2.13,1.57-3.54-2.13-2.12-3.54-1.57-2.12,2.13-1.57,3.54Z"/><path class="cls-34" d="M699.82,325.51c.54,1.41,2.13,2.12,3.54,1.57s2.12-2.13,1.57-3.54c-.54-1.41-2.13-2.12-3.54-1.57s-2.12,2.13-1.57,3.54Z"/><path class="cls-34" d="M699.82,336.72c.54,1.41,2.13,2.12,3.54,1.57,1.41-.54,2.12-2.13,1.57-3.54-.54-1.41-2.13-2.12-3.54-1.57-1.41.54-2.12,2.13-1.57,3.54Z"/><polygon class="cls-6" points="730.22 297.19 703.01 314.13 692.3 304.57 686.43 258.43 726.39 258.43 730.22 297.19"/><path class="cls-28" d="M729.21,286.95l.65,7.4-26.85,19.79,8.85,8.62c1.01.98,2.59,1.05,3.68.16l24.69-21.66c1.23-1.08,1.26-3,.05-4.11l-11.08-10.2Z"/><path class="cls-28" d="M703.01,314.13l-9.12,7.07c-1.43,1.11-3.53.56-4.24-1.11l-8.02-18.98c-.47-1.12-.16-2.42.78-3.2l8.17-6.81.74,5.83,11.69,17.19Z"/><path class="cls-6" d="M680.29,246.81c-4.96-.78-9.8,2.46-10.64,7.4-.6,3.52.9,6.89,3.58,8.85,1.22.89,2.2,2.11,2.6,3.56.61,2.18,2.43,3.91,4.81,4.29,3.13.49,6.06-1.55,6.73-4.6h.02s1.26-8.03,1.26-8.03c.86-5.48-2.89-10.61-8.36-11.47h0Z"/><path class="cls-25" d="M701.13,294.75h0c-15.05-2.36-25.44-16.6-23.08-31.66l1.85-11.8c2.36-15.05,16.6-25.44,31.66-23.08h0c15.05,2.36,25.44,16.6,23.08,31.66l-1.85,11.8c-2.36,15.05-16.6,25.44-31.66,23.08Z"/><path class="cls-15" d="M702.41,263.16c-.29,1.82.96,3.53,2.78,3.82s3.53-.96,3.81-2.78-.96-3.53-2.78-3.81-3.53.96-3.82,2.78Z"/><path class="cls-15" d="M684.2,260.3c-.29,1.82.96,3.53,2.78,3.82,1.82.29,3.53-.96,3.81-2.78.29-1.82-.96-3.53-2.78-3.81s-3.53.96-3.81,2.78Z"/><path class="cls-35" d="M696.01,259.32l-2.86,4.97c-.29.5.16,1.11.89,1.23l2.73.43"/><path class="cls-35" d="M705.46,268.56c-.8.76-2.92,2.57-6.14,3-5.34.7-9.1-2.99-9.56-3.46"/><path class="cls-25" d="M739.17,256.16c4.96.78,8.58,5.34,7.87,10.3-.5,3.53-2.97,6.28-6.12,7.33-1.43.48-2.73,1.33-3.56,2.59-1.24,1.89-3.51,2.98-5.89,2.61-3.13-.49-5.3-3.33-5-6.44h-.02s1.26-8.03,1.26-8.03c.86-5.48,5.99-9.22,11.47-8.36h0Z"/><path class="cls-15" d="M737.99,256.06c.11-6.62-1.92-13.09-5.92-18.56-4.33-5.94-10.49-10.05-17.51-11.76h-.02s-15.57-3.62-15.57-3.62c-8.53-1.97-16.4,5.19-15.25,13.87-4.86,6.1-6.91,14.12-5.76,21.98l.43,2.97,1.51-9.65c.41-2.6,1.17-5.06,2.23-7.34,1.59-3.42,5.25-5.39,9-4.93l23.98,2.91c2.66.32,4.61,2.65,4.47,5.32l-.19,3.66c-.27,5.26,3.81,9.43,9.07,9.26l.62,3.69c.17,1.03,1.04,1.81,2.09,1.86,1.07.06,2.02-.65,2.28-1.68l1.96-7.72c.84-.19,1.7-.3,2.59-.27Z"/><path class="cls-15" d="M709.62,253.95c.16,0,.32-.03.46-.13.35-.23.44-.7.21-1.05-.55-.84-1.48-1.4-2.48-1.52-1-.12-2.03.23-2.76.92-.3.29-.32.77-.03,1.07.29.3.77.32,1.07.03.4-.38.99-.58,1.54-.51.55.06,1.08.39,1.39.85.14.21.36.33.59.34Z"/><path class="cls-15" d="M690.54,252.11c.16,0,.32-.03.46-.13.35-.23.44-.7.21-1.05-.55-.84-1.48-1.4-2.48-1.52-1-.12-2.03.23-2.76.92-.3.29-.32.77-.03,1.07.29.3.77.32,1.07.03.4-.38.99-.58,1.54-.51.55.06,1.08.39,1.39.85.14.21.36.33.59.34Z"/><path class="cls-25" d="M685.26,426.76l-16.02-3.73,15.81,2.33c2.19.13,4.07-1.59,4.18-3.79.1-2.2-1.59-4.07-3.79-4.19l-20.83-2.4c-1.74-.06-3.46.36-4.97,1.2l-8.91,4.96-4.68,1.81h0l-17.7,22.51,5,4.81c3.82,4.63,10.8,4.94,15.04.69l1.43-1.43,3.76-3.79h6.92l10.21,2.45c.31.07.62.1.92.1,3,0,5.54-3.4,2.87-7.29-.03-.05-.08-.09-.13-.13l5.7,1.37c.32.08.65.12.97.12,1.89,0,3.6-1.35,3.94-3.33.35-2.09-1.08-4.05-3.13-4.57l-9.49-2.67,11.47,2.82c2.28.46,4.51-1.13,4.75-3.51.22-2.08-1.3-3.94-3.35-4.35Z"/><line class="cls-33" x1="672.44" y1="431.82" x2="672.38" y2="431.81"/><path class="cls-33" d="M659.09,424.75l7.16-1.59c1.15-.25,2.34-.27,3.49-.03l15.69,3.67"/><path class="cls-33" d="M678.49,433.34l-9.8-2.45c-.41-.1-.84-.14-1.25-.1l-7.7.56"/><line class="cls-33" x1="666.1" y1="438.88" x2="666.1" y2="438.88"/><path class="cls-33" d="M674.39,440.88l-9.36-2.26c-.44-.1-.9-.16-1.35-.16h-4.1"/><line class="cls-33" x1="650.95" y1="445.76" x2="660.5" y2="445.76"/><line class="cls-34" x1="619.21" y1="386.75" x2="609.24" y2="376.36"/><path class="cls-28" d="M647.98,420.5l-22.86,29.08-12.46-14.14c.68-3.44,2.47-10.13,7.73-16.74,5.78-7.26,12.65-10.55,15.94-11.87,3.89,4.56,7.77,9.11,11.66,13.67Z"/><path class="cls-34" d="M632.89,419.82c.54,1.41,2.13,2.12,3.54,1.57s2.12-2.13,1.57-3.54c-.54-1.41-2.13-2.12-3.54-1.57-1.41.54-2.12,2.13-1.57,3.54Z"/><path class="cls-28" d="M503.93,335.03l-1.22-6.89-1.33-.58c-.17-.74-.37-1.48-.62-2.22l-25.19-73.23-33.89,8.27,7.94,42.42c-9.6-10.18-23.01-16.05-37.14-16.05h-65.35c-.6,0-1.2.01-1.8.03-6.33.24-11.97,1.77-16.91,4.36l-13.49-3.09-29.58,82.66-.73,1.78.11-.03c-5.27,14.75,4.86,30.61,20.59,31.89h0c11.33.92,21.75-6.25,24.92-17.17l.71-2.55,1.36,60.83h105.15l8.39-91.94,19.19,10c19.77,10.3,42.76-6.56,38.88-28.51Z"/><path class="cls-25" d="M484.08,295.99l-12.71-48.77c4.43-1.27,6.83-6.07,5.17-10.39l-3.78-9.78-36.08-2.5-1.06-.88-1.56-2.74c-1.23-1.98-3.83-2.62-5.81-1.41-2.05,1.23-2.7,3.89-1.45,5.9l1.48,2.67c.17.28.37.53.57.79l-.03-.02,5.11,6.76,1.7,9.31c.89,4.87,4.52,8.64,9.12,9.85l7.97,51.61,31.36-10.41Z"/><line class="cls-35" x1="441.28" y1="229.1" x2="439.12" y2="231.54"/><path class="cls-28" d="M447.54,189.92l-24.27,16.57c-1.73,1.18-2.17,3.54-.99,5.27l25.95,38.02c1.18,1.73,3.54,2.18,5.27.99l24.27-16.57c1.73-1.18,2.18-3.55,1-5.28l-25.95-38.02c-1.18-1.73-3.55-2.17-5.28-.99ZM443.8,198.11l-11.54,7.88c-.36.24-.85.16-1.1-.21-.24-.36-.15-.86.21-1.1l11.54-7.88c.36-.25.86-.15,1.1.21.25.36.16.85-.21,1.1Z"/><path class="cls-24" d="M435.95,222.45c2.19,3.21,5.55,5.15,9.12,5.64,3.13.43,6.43-.26,9.25-2.18,2.82-1.92,4.66-4.75,5.4-7.82.84-3.51.26-7.34-1.93-10.55-4.12-6.03-12.34-7.58-18.37-3.47-6.03,4.12-7.58,12.34-3.47,18.37Z"/><path class="cls-28" d="M442.47,214.17c.98,1.44,2.95,1.81,4.4.83s1.81-2.95.83-4.4-2.95-1.81-4.4-.83-1.81,2.95-.83,4.4Z"/><path class="cls-28" d="M459.17,219.82c-.93,2.41-2.57,4.55-4.84,6.1-2.3,1.57-4.89,2.29-7.47,2.28l-1.66-3.73c-.67-1.5-.75-3.15-.33-4.64.42-1.5,1.36-2.86,2.72-3.78,2.72-1.86,6.39-1.5,8.7.85l2.88,2.92Z"/><path class="cls-25" d="M466.68,209.03c2.26-1.6,1.81-4.24.18-6.13-1.12-1.64-3.36-2.06-5-.94-4.59,3.25.13,10.16,4.83,7.07Z"/><path class="cls-25" d="M470.07,218.32s0,0,0,0l.57-1.28-1.95-2.86h.04c2.31-.24,4.64.02,6.85.76,2.28,1.03,3.29,3.71,2.27,5.99l-.33.73c-.92,2.06-3.34,2.98-5.4,2.05-.71-.32-1.28-.82-1.69-1.41-.77-1.13-.96-2.63-.36-3.97Z"/><path class="cls-25" d="M475.22,225.74s0,0,0,0l.51-1.13-1.73-2.54h.03c2.05-.21,4.12.02,6.07.67,2.02.91,2.92,3.28,2.01,5.3l-.29.65c-.82,1.83-2.96,2.64-4.79,1.82-.63-.28-1.13-.72-1.5-1.25-.68-1-.85-2.33-.32-3.52Z"/><path class="cls-25" d="M465.58,211.74s0,0,0,0l.57-1.28-1.95-2.86h.04c2.31-.24,4.64.02,6.85.76,2.28,1.03,3.29,3.71,2.27,5.99l-.33.73c-.92,2.06-3.34,2.98-5.4,2.05-.71-.32-1.28-.82-1.69-1.41-.77-1.13-.96-2.63-.36-3.97Z"/><path class="cls-25" d="M475.22,225.74s0,0,0,0l.51-1.13-1.73-2.54h.03c2.05-.21,4.12.02,6.07.67,2.02.91,2.92,3.28,2.01,5.3l-.29.65c-.82,1.83-2.96,2.64-4.79,1.82-.63-.28-1.13-.72-1.5-1.25-.68-1-.85-2.33-.32-3.52Z"/><path class="cls-25" d="M470.07,218.32s0,0,0,0l.57-1.28-1.95-2.86h.04c2.31-.24,4.64.02,6.85.76,2.28,1.03,3.29,3.71,2.27,5.99l-.33.73c-.92,2.06-3.34,2.98-5.4,2.05-.71-.32-1.28-.82-1.69-1.41-.77-1.13-.96-2.63-.36-3.97Z"/><path class="cls-25" d="M465.58,211.74s0,0,0,0l.57-1.28-1.95-2.86h.04c2.31-.24,4.64.02,6.85.76,2.28,1.03,3.29,3.71,2.27,5.99l-.33.73c-.92,2.06-3.34,2.98-5.4,2.05-.71-.32-1.28-.82-1.69-1.41-.77-1.13-.96-2.63-.36-3.97Z"/><path class="cls-25" d="M466.68,209.03c2.26-1.6,1.81-4.24.18-6.13-1.12-1.64-3.36-2.06-5-.94-4.59,3.25.13,10.16,4.83,7.07Z"/><line class="cls-34" x1="465.81" y1="211.23" x2="466.66" y2="209.51"/><line class="cls-34" x1="475.5" y1="225.12" x2="476.15" y2="223.8"/><line class="cls-34" x1="472.13" y1="216.43" x2="472.78" y2="215.11"/><rect class="cls-24" x="445.13" y="227.24" width="22.53" height="1.49" transform="translate(961.87 158.97) rotate(145.68)"/><rect class="cls-24" x="447.36" y="230.52" width="22.53" height="1.49" transform="translate(967.8 163.69) rotate(145.68)"/><polygon class="cls-28" points="475.57 252.11 441.68 260.39 455.9 336.35 500.76 325.35 475.57 252.11"/><line class="cls-32" x1="493.93" y1="805.52" x2="411.98" y2="805.52"/><line class="cls-32" x1="284.47" y1="808.19" x2="359.58" y2="808.19"/><polygon class="cls-5" points="410.77 782.18 408.97 747.37 449.78 747.37 455.54 791.56 413.65 788.43 410.77 782.18"/><path class="cls-14" d="M486.4,794.2l-8.93-1.8c-11.56-2.33-11.72-8.31-19.75-17.01-2.39-2.59-5.71-4.08-9.19-4.08-4.26,0-7.93,2.57-9.62,6.27-1.28,2.8-4.03,4.59-7.05,4.59h-21.08v29.64h92.47c-1.52-8.87-8.21-15.88-16.85-17.61Z"/><polygon class="cls-5" points="364.72 788.46 366.6 752.11 323.98 752.11 317.98 798.26 361.72 794.99 364.72 788.46"/><path class="cls-14" d="M285.75,801.02l9.33-1.88c12.07-2.44,12.24-8.67,20.63-17.76,2.5-2.71,5.96-4.27,9.6-4.27,4.45,0,8.28,2.68,10.04,6.55,1.34,2.93,4.21,4.8,7.36,4.8h22.01v30.95h-96.56c1.59-9.26,8.57-16.59,17.59-18.39Z"/><path class="cls-9" d="M468.14,783.35h-61.33l-23.95-247.03-18.12,247.03h-63.53l11.55-266.94c.92-20.17,5.93-39.78,14.52-57.22,2.7-5.5,5.77-10.79,9.18-15.81h96.43c2.88,4.24,5.52,8.68,7.9,13.28,9.38,18.07,14.83,38.59,15.81,59.75l11.55,266.94Z"/><path class="cls-32" d="M322.18,786.83c0,1.92-1.52,3.47-3.39,3.47h-11.64l9.82-6.4c2.26-1.47,5.21.19,5.21,2.93h0Z"/><path class="cls-32" d="M292.13,786.83c0,1.92,1.52,3.47,3.39,3.47h11.64l-9.82-6.4c-2.26-1.47-5.21.19-5.21,2.93h0Z"/><path class="cls-32" d="M480.03,786.83c0,1.92-1.52,3.47-3.39,3.47h-11.64l9.82-6.4c2.26-1.47,5.21.19,5.21,2.93h0Z"/><path class="cls-32" d="M449.98,786.83c0,1.92,1.52,3.47,3.39,3.47h11.64l-9.82-6.4c-2.26-1.47-5.21.19-5.21,2.93h0Z"/><line class="cls-32" x1="382.95" y1="539.18" x2="382.95" y2="512.94"/><line class="cls-32" x1="274.29" y1="805.52" x2="356.25" y2="805.52"/><line class="cls-32" x1="415.52" y1="805.52" x2="497.47" y2="805.52"/><polygon class="cls-9" points="437.46 443.37 437.46 453.02 330.66 453.02 332.23 443.37 437.46 443.37"/><line class="cls-34" x1="631.73" y1="810.53" x2="555.47" y2="810.53"/><line class="cls-34" x1="436.83" y1="813.06" x2="506.71" y2="813.06"/><polygon class="cls-5" points="554.35 788.44 552.67 755.51 590.65 755.51 596 797.33 557.02 794.36 554.35 788.44"/><path class="cls-14" d="M624.72,799.82l-8.31-1.7c-10.76-2.21-10.9-7.86-18.38-16.1-2.23-2.45-5.31-3.86-8.55-3.86-3.96,0-7.38,2.43-8.95,5.94-1.19,2.65-3.75,4.35-6.56,4.35h-19.61v28.05h86.04c-1.41-8.39-7.64-15.03-15.67-16.66Z"/><polygon class="cls-5" points="511.49 794.39 513.24 760 473.59 760 468.01 803.66 508.7 800.57 511.49 794.39"/><path class="cls-14" d="M438.02,806.27l8.68-1.78c11.23-2.31,11.38-8.2,19.19-16.81,2.32-2.56,5.54-4.04,8.93-4.04,4.14,0,7.7,2.54,9.34,6.2,1.24,2.77,3.91,4.54,6.85,4.54h20.48v29.28h-89.84c1.48-8.76,7.97-15.69,16.37-17.4Z"/><path class="cls-17" d="M607.73,789.55h-57.07l-22.28-240.23-16.86,240.23h-59.11l10.75-252.55c.86-19.09,5.52-37.63,13.51-54.14,2.51-5.21,5.37-10.21,8.54-14.96h89.72c2.68,4.02,5.13,8.21,7.35,12.56,8.73,17.1,13.8,36.51,14.71,56.53l10.75,252.55Z"/><path class="cls-34" d="M471.91,792.84c0,1.81-1.41,3.28-3.15,3.28h-10.83l9.13-6.05c2.1-1.39,4.85.18,4.85,2.77h0Z"/><path class="cls-34" d="M443.95,792.84c0,1.81,1.41,3.28,3.15,3.28h10.83l-9.13-6.05c-2.1-1.39-4.85.18-4.85,2.77h0Z"/><path class="cls-34" d="M618.79,792.84c0,1.81-1.41,3.28-3.15,3.28h-10.83l9.13-6.05c2.1-1.39,4.85.18,4.85,2.77h0Z"/><path class="cls-34" d="M590.83,792.84c0,1.81,1.41,3.28,3.15,3.28h10.83l-9.13-6.05c-2.1-1.39-4.85.18-4.85,2.77h0Z"/><line class="cls-34" x1="528.46" y1="550.92" x2="528.46" y2="526.95"/><line class="cls-34" x1="427.36" y1="810.53" x2="503.61" y2="810.53"/><line class="cls-34" x1="558.76" y1="810.53" x2="635.02" y2="810.53"/><rect class="cls-26" x="479.81" y="467.9" width="99.37" height="9.12"/><path class="cls-15" d="M412.41,240.89c-.38.13-.85-.13-.95-.59l-.64-4.06c-.36-2.23-.97-4.36-1.81-6.34-.65-1.55-1.79-2.76-3.18-3.54.5-.32,1-.66,1.49-1.03.23-.17.44-.34.66-.52,2.14,3.33,3.62,7.11,4.27,11.21l.64,4.01c.08.38-.14.77-.47.87Z"/><polygon class="cls-19" points="400.32 243.55 359.4 250.05 361.64 288.03 395.94 318.34 400.92 286.77 400.32 243.55"/><path class="cls-19" d="M410.73,232.16c4.96-.79,9.81,2.44,10.67,7.39.61,3.52-.89,6.89-3.57,8.87-1.22.9-2.19,2.11-2.6,3.57-.6,2.18-2.43,3.92-4.81,4.3-3.13.5-6.07-1.54-6.75-4.59h-.02s-1.28-8.03-1.28-8.03c-.87-5.48,2.87-10.63,8.35-11.5h0Z"/><path class="cls-18" d="M389.66,279.77h0c15.06-2.39,25.43-16.67,23.04-31.73l-1.87-11.8c-2.39-15.06-16.67-25.43-31.73-23.04h0c-15.06,2.39-25.43,16.67-23.04,31.73l1.87,11.8c2.39,15.06,16.67,25.43,31.73,23.04Z"/><path class="cls-18" d="M351.49,241.23c-4.96.79-8.57,5.36-7.86,10.33.51,3.53,2.98,6.28,6.14,7.33,1.43.48,2.74,1.33,3.57,2.59,1.25,1.89,3.52,2.98,5.9,2.6,3.13-.5,5.29-3.35,4.99-6.46h.02s-1.28-8.04-1.28-8.04c-.87-5.48-6.02-9.22-11.5-8.35h0Z"/><circle class="cls-15" cx="382.9" cy="248.07" r="3.08"/><path class="cls-15" d="M404.52,245.66c.19,1.69-1.03,3.22-2.72,3.4-1.69.19-3.22-1.03-3.4-2.72s1.03-3.22,2.72-3.4c1.69-.19,3.22,1.03,3.4,2.72Z"/><path class="cls-35" d="M391.55,245.72c.2.56.51,1.18,1.03,1.75.34.38.7.66,1.02.87.4.26.61.76.44,1.21,0,0,0,.01,0,.02-.13.32-.39.58-.76.68l-2.25.16"/><path class="cls-35" d="M399.26,252.04c-.5.59-2.49,2.77-5.88,3.28-3.86.58-6.68-1.43-7.2-1.83"/><path class="cls-15" d="M412.24,236.01c-.67-4.24-2.25-8.15-4.52-11.56.08.12.17.23.25.35,5.49-4.46,7.85-10.63,5.24-14.09-2.19-2.91-7.21-2.99-12.21-.54.34-1.85.07-3.56-.91-4.88-2.69-3.59-9.71-2.88-15.67,1.59-1.91,1.43-3.48,3.09-4.65,4.78.03,0,.06,0,.09,0-.33.04-.67.07-1,.13-7.66,1.22-14.41,5.37-19,11.69-4.59,6.32-6.45,14.03-5.23,21.69l.63,3.94c.38,2.38,3.93,2.42,4.21.02.01-.09.02-.18.02-.28.09-1.73,1.35-3.18,3.05-3.53l.75-.15c2.27-.47,3.92-2.42,4.01-4.73l.2-5.04c.13-3.27,2.6-5.96,5.84-6.38l27.8-3.57c3.32-.43,6.57,1.37,7.87,4.46.84,1.99,1.46,4.12,1.82,6.34l.65,4.06c.09.46.56.72.94.6.33-.11.56-.48.48-.88l-.64-4.01Z"/><path class="cls-11" d="M385.27,241.85h-5.83c-.41,0-.75-.34-.75-.75s.34-.75.75-.75h5.83c.41,0,.75.34.75.75s-.34.75-.75.75Z"/><path class="cls-11" d="M397.92,240.11c-.31,0-.61-.2-.71-.51-.13-.39.08-.82.47-.95l5.52-1.86c.4-.14.82.08.95.47.13.39-.08.82-.47.95l-5.52,1.86c-.08.03-.16.04-.24.04Z"/><polygon class="cls-12" points="499.55 294.25 490.82 367 522.95 367 522.95 303.51 499.55 294.25"/><path class="cls-8" d="M615.6,428.13l-22.12-63.61c-4.82-13.86-17.88-23.15-32.56-23.15h-56.44c-16.45,0-30.61,11.63-33.81,27.77l-6.25,31.53-15.92-10.82h0c-3.23-3.11-7.62-5.03-12.46-5.03-9.94,0-17.99,8.05-17.99,17.99,0,5.82,2.78,10.99,7.07,14.27h-.01s39.01,28.91,39.01,28.91c4.85,3.59,10.34,4.98,15.6,4.6l-5.15,36.45h110.86v-31.74l7.26.96c15.72,2.07,28.12-13.14,22.91-28.12Z"/><path class="cls-8" d="M478.87,355.84l-1.21,53.83-29.16-19.82h0c-3.23-3.11-7.62-5.03-12.46-5.03-9.94,0-17.99,8.05-17.99,17.99,0,5.82,2.78,10.99,7.07,14.27h-.01s39.01,28.91,39.01,28.91c15.27,11.31,36.95.82,37.57-18.16l1.89-58.15-24.71-13.83Z"/><path class="cls-18" d="M442.17,388.11h0c.23-1.19.34-2.39.31-3.58-.13-5.9-3.55-11.23-8.7-14.11l-4.39-2.45c-.09-.32-.21-.64-.37-.95l-.88-1.68c-1.22-2.32-4.11-3.23-6.43-2.01h0c-1.22.64-2.03,1.74-2.37,2.98l-1.67-1.54c-2.17-1.99-5.6-1.67-7.34.73l-10.97,14.6c-2.68,3.57-2.48,8.47.33,11.8.42.5.92.93,1.44,1.34l21.55,17.45c6.1,4.94,15,4.29,20.31-1.5l.07-.07c5.56-6.05,5.16-15.46-.89-21.02Z"/><path class="cls-34" d="M407.02,375.7l5.44-7.42c1.74-2.38,5.16-2.71,7.33-.72l2.83,2.6h.01s.54.51.54.51c.16.14.29.29.43.43.04.06.11.12.15.17l.4.54c.11.16.21.31.3.49.05.09.11.18.14.28l.13.29c.04.08.09.18.12.27.03.11.08.23.11.34.06.19.11.39.14.57"/><path class="cls-34" d="M427.4,378.6c0-.25-.01-.51-.05-.76-.04-.23-.1-.48-.17-.71-.34-1.08-.96-2.05-1.79-2.82l-.27-.25-2.04-1.88-1.07-.99c-2.17-1.99-5.6-1.67-7.33.72l-5.36,7.31"/><path class="cls-34" d="M421.36,388.18l1.44-.42c.36.18.73.31,1.14.39.78.18,1.6.16,2.41-.07.89-.26,1.65-.75,2.24-1.4.21-.23.4-.48.55-.74.62-.97.88-2.15.7-3.36-.04-.23-.1-.48-.17-.71-.34-1.08-.96-2.05-1.79-2.82l-3.39-3.11c-.65-.59-1.39-.97-2.18-1.16-1.86-.46-3.93.2-5.16,1.87l-.22.3-.79,1.07h0s-4.01,5.51-4.01,5.51"/><line class="cls-34" x1="422.81" y1="387.76" x2="422.75" y2="384.07"/><path class="cls-18" d="M427.01,373.46h0c-2.32,1.22-5.22.31-6.43-2.01l-.88-1.68c-1.22-2.32-.31-5.21,2.01-6.43h0c2.32-1.22,5.21-.31,6.43,2.01l.88,1.68c1.22,2.32.31,5.21-2.01,6.43Z"/><path class="cls-18" d="M436.84,391.22c-1.07-1.07-4.87-4.59-10.76-5-3.42-.24-6.14.68-7.64,1.32l-5.75,6.26,11.81,10.85,12.33-13.42Z"/><path class="cls-34" d="M436.84,391.22c-1.07-1.07-4.87-4.59-10.76-5-3.42-.24-6.14.68-7.64,1.32"/><path class="cls-34" d="M428.14,365.34l.88,1.68c1.22,2.32.31,5.21-2.01,6.43h0c-2.32,1.22-5.22.31-6.43-2.01l-.88-1.68c-.58-1.1-.68-2.34-.37-3.46"/><path class="cls-19" d="M546.14,342.23l.58-.86v-45.32h-33.3v45.32h-6.53l20.29,27.95c1.19,1.64,3.62,1.64,4.82,0l19.82-27.1h-5.68Z"/><path class="cls-12" d="M561.1,289.24l20,94.2c2,9.42-5.59,18.12-15.19,17.41h0c-6.73-.49-12.22-5.59-13.23-12.26l-10.51-69.84,18.93-29.52Z"/><path class="cls-19" d="M499.23,289.48c-5.3,0-9.82,4.17-9.9,9.46-.05,3.77,2.07,7.04,5.19,8.65,1.41.73,2.64,1.84,3.3,3.29.99,2.17,3.18,3.69,5.72,3.69,3.34,0,6.07-2.61,6.27-5.91h.02s0-8.59,0-8.59c0-5.85-4.75-10.6-10.6-10.6h0Z"/><path class="cls-19" d="M560.91,289.48c5.3,0,9.82,4.17,9.9,9.46.05,3.77-2.07,7.04-5.19,8.65-1.41.73-2.64,1.84-3.3,3.29-.99,2.17-3.18,3.69-5.72,3.69-3.34,0-6.07-2.61-6.27-5.91h-.02s0-8.59,0-8.59c0-5.85,4.75-10.6,10.6-10.6h0Z"/><path class="cls-18" d="M530.07,333.74h0c-15.17,0-27.58-12.41-27.58-27.58v-15.98c0-15.17,12.41-27.58,27.58-27.58h0c15.17,0,27.58,12.41,27.58,27.58v15.98c0,15.17-12.41,27.58-27.58,27.58Z"/><path class="cls-28" d="M536.99,310.42c.6,0,1.07.45.98.95-.55,3.07-3.7,5.42-7.5,5.42s-6.96-2.35-7.5-5.42c-.09-.5.38-.95.98-.95h13.04Z"/><path class="cls-15" d="M524.02,303.51c0,1.84-1.49,3.33-3.33,3.33s-3.33-1.49-3.33-3.33,1.49-3.33,3.33-3.33,3.33,1.49,3.33,3.33Z"/><path class="cls-15" d="M544.2,303.51c0,1.84-1.49,3.33-3.33,3.33s-3.33-1.49-3.33-3.33,1.49-3.33,3.33-3.33,3.33,1.49,3.33,3.33Z"/><path class="cls-35" d="M530.18,303.05c.16.62.45,1.31.95,1.98.33.44.69.77,1.02,1.03.41.32.59.87.36,1.34,0,0,0,.01,0,.02-.16.33-.47.59-.88.67l-2.43-.02"/><path class="cls-12" d="M554.2,272.28c-5.23-6.59-11.32-10.64-15.56-10.82-.15-.24-.3-.49-.49-.71-4.19-4.82-16.22-1.24-26.88,8.01-10.66,9.25-15.9,20.66-11.72,25.49s16.22,1.24,26.88-8.01c2.05-1.78,3.89-3.63,5.51-5.51.23,1.97.77,3.97,1.76,5.89,3.46,6.26,11.94,8.06,12.93,7.32.87-.65-4.96-2.48-7.88-8.93-.9-1.99-1.38-4.06-1.63-6.08,1.15,2.09,2.55,4.22,4.19,6.28,7.04,8.86,15.63,13.15,19.19,9.58,3.56-3.57.74-13.65-6.3-22.51Z"/><path class="cls-12" d="M560.11,293.28c4.99,4.98,4.55,12.83-.58,17.5-.44.4-1.07-.24-.66-.67,3.95-4.36,4.09-11.03-.58-14.9-1.37-1.23.5-3.23,1.82-1.94h0Z"/><path class="cls-12" d="M504.91,295.61c-1.86,1.56-3.12,3.93-3.19,6.39-.12,2.54.99,5.12,2.67,7.02.17.17.16.45-.02.61-.16.15-.41.14-.57,0-1.05-.98-1.89-2.13-2.55-3.41-.81-1.6-1.27-3.48-1.14-5.31.12-2.64,1.33-5.15,3.18-7.04,1.18-1.15,2.87.66,1.63,1.75h0Z"/><path class="cls-15" d="M519.23,310.78c-4.9,0-8.89-3.25-8.89-7.25s3.99-7.25,8.89-7.25,8.89,3.25,8.89,7.25-3.99,7.25-8.89,7.25ZM519.23,297.78c-4.08,0-7.39,2.58-7.39,5.75s3.31,5.75,7.39,5.75,7.39-2.58,7.39-5.75-3.31-5.75-7.39-5.75Z"/><path class="cls-15" d="M542.17,310.78c-4.9,0-8.89-3.25-8.89-7.25s3.99-7.25,8.89-7.25,8.89,3.25,8.89,7.25-3.99,7.25-8.89,7.25ZM542.17,297.78c-4.08,0-7.39,2.58-7.39,5.75s3.31,5.75,7.39,5.75,7.39-2.58,7.39-5.75-3.31-5.75-7.39-5.75Z"/><rect class="cls-15" x="527.37" y="303.92" width="6.66" height="1.5"/><line class="cls-34" x1="464.35" y1="400.61" x2="475.11" y2="407.93"/><line class="cls-34" x1="479.73" y1="450.56" x2="486.87" y2="395.41"/><rect class="cls-21" x="489.96" y="378.02" width="70.39" height="92.95"/><path class="cls-25" d="M484.05,419.53c-.97-2.07.03-4.56,2.25-5.36,1.94-.7,4.09.38,4.96,2.24l.93,1.98,9.71,3.45,3.54-.63,4.08-4.58s-7.42.2-7.42.2c-2.26.06-4.35-1.52-4.63-3.76-.32-2.59,1.63-4.83,4.17-4.87l10.82-.28c2.28-.06,4.52.7,6.32,2.11,0,0,11.21,8.93,11.21,8.93l36.64-1.37-.65,28.45-35.92-1.19s-22.76,3.57-22.76,3.57c-1.83.19-3.68-.26-5.21-1.28l-13.12-8.71c-1.71-1.13-2.19-3.34-1.24-5.1-1.61-1.24-2.04-3.52-.89-5.24,0-.02.02-.02.04-.04l-.61-.41c-1.8-1.2-2.3-3.65-1.09-5.45.02-.06.07-.07.11-.11-.02-.06-.07-.11-.09-.15l-1.13-2.43Z"/><polyline class="cls-34" points="486.26 427.66 486.87 428.07 497.75 434.26"/><path class="cls-34" d="M497.01,439.2l-9.09-5.64c-.1-.06-.18-.13-.26-.21"/><path class="cls-34" d="M484.05,419.54l1.13,2.42c.82,1.75,2.31,3.11,4.13,3.76l9.54,3.4"/><line class="cls-34" x1="507.72" y1="420.82" x2="501.89" y2="421.86"/><line class="cls-34" x1="511.43" y1="416.56" x2="506.21" y2="416.71"/><path class="cls-8" d="M533.84,416.56v31.92l58.85,7.76c15.72,2.07,28.12-13.14,22.91-28.12l-22.12-63.61c.94,2.86,6.84,21.88-4.2,38.6-4.77,7.22-10.91,11.31-14.86,13.44h-40.58Z"/><polygon class="cls-21" points="557.89 378.02 565.7 378.02 565.7 402.25 557.89 408.08 557.89 378.02"/><line class="cls-34" x1="540.62" y1="416.56" x2="590.76" y2="416.56"/><line class="cls-34" x1="563.16" y1="452.35" x2="585.43" y2="455.29"/><path class="cls-28" d="M474.57,487.04c-.72,1.02-1.45,2.2-2.15,3.54-1.39,2.68-2.21,5.2-2.7,7.27h122.59c-.67-2-1.81-4.6-3.77-7.27-1.05-1.43-2.13-2.6-3.12-3.54h-110.86Z"/><line class="cls-34" x1="448.75" y1="298.17" x2="457.09" y2="342.73"/><line class="cls-34" x1="560.35" y1="379.73" x2="560.35" y2="403.81"/><path class="cls-28" d="M542.73,394.02h-34.55c-1.86,0-3.38-1.52-3.38-3.38h0c0-1.86,1.52-3.38,3.38-3.38h34.55c1.86,0,3.38,1.52,3.38,3.38h0c0,1.86-1.52,3.38-3.38,3.38Z"/><path class="cls-28" d="M518,356.67l9.46,13.03c1.05,1.45,3.21,1.45,4.26,0l9.54-13.04h-23.27Z"/><polygon class="cls-22" points="395.94 318.34 355.78 300.21 357.09 293.99 347.13 286.76 361.57 286.76 395.94 318.34"/><polygon class="cls-22" points="395.94 318.34 406.71 300.21 405.4 293.99 415.36 286.77 400.92 286.77 395.94 318.34"/><path class="cls-10" d="M334.75,252.62l-6.74,3.24c-2.89,1.39-6.39.16-7.78-2.73h0c-1.39-2.89-.16-6.39,2.73-7.78l6.74-3.24c2.89-1.39,6.39-.16,7.78,2.73h0c1.39,2.89.16,6.39-2.73,7.78Z"/><path class="cls-19" d="M340.03,331.9l11.27-41.58h0c4.03-3.67,6.11-9.02,5.62-14.44l-1.11-12.38,1.24-10.14c.32-2.64-1.21-5.27-3.77-5.99-2.28-.66-4.5.27-5.76,1.99-.71-1.73-2.28-3.03-4.25-3.27-1.97-.24-3.81.65-4.92,2.16-.71-1.73-2.28-3.03-4.26-3.27-1.97-.24-3.81.65-4.92,2.16-.81-1.97-2.75-3.41-5.12-3.31-2.65.09-4.77,2.28-5.09,4.91l-2.41,10.55c-.45,1.98-.53,4.03-.24,6.04l3.17,21.51-15.81,42.13,36.36,2.96Z"/><line class="cls-34" x1="329.18" y1="247.11" x2="328.15" y2="254.62"/><line class="cls-34" x1="338.42" y1="248.24" x2="337.38" y2="255.94"/><line class="cls-34" x1="347.67" y1="249.37" x2="346.55" y2="257.63"/><path class="cls-28" d="M314.92,288.07l40.25,9.22-24.93,89.92c-3.18,10.91-13.59,18.09-24.92,17.17h0c-15.96-1.3-26.17-17.6-20.37-32.53l29.97-83.77Z"/><polygon class="cls-22" points="314.92 288.07 308.37 306.4 349.46 316.85 355.17 297.29 314.92 288.07"/><line class="cls-34" x1="355.17" y1="297.29" x2="332.78" y2="374"/><polygon class="cls-22" points="441.68 260.39 444.75 276.78 481.14 267.5 475.57 252.11 441.68 260.39"/><path class="cls-34" d="M400.29,327.63c0,1.72-1.39,3.12-3.11,3.12s-3.12-1.39-3.12-3.12,1.39-3.11,3.12-3.11,3.11,1.39,3.11,3.11Z"/><path class="cls-36" d="M400.29,363.13c0,1.72-1.39,3.11-3.11,3.11s-3.12-1.39-3.12-3.11,1.39-3.12,3.12-3.12,3.11,1.39,3.11,3.12Z"/><path class="cls-36" d="M400.29,398.63c0,1.72-1.39,3.11-3.11,3.11s-3.12-1.39-3.12-3.11,1.39-3.12,3.12-3.12,3.11,1.39,3.11,3.12Z"/><path class="cls-36" d="M400.29,434.14c0,1.72-1.39,3.11-3.11,3.11s-3.12-1.39-3.12-3.11,1.39-3.11,3.12-3.11,3.11,1.39,3.11,3.11Z"/><path class="cls-25" d="M530.69,176.2h0c-1.77.71-3.78-.15-4.49-1.92l-3.42-8.51c-.71-1.77.15-3.78,1.92-4.49h0c1.77-.71,3.78.15,4.49,1.92l3.42,8.51c.71,1.77-.15,3.78-1.92,4.49Z"/><path class="cls-25" d="M537.1,173.62h0c-1.77.71-3.78-.15-4.49-1.92l-3.42-8.51c-.71-1.77.15-3.78,1.92-4.49h0c1.77-.71,3.78.15,4.49,1.92l3.42,8.51c.71,1.77-.15,3.78-1.92,4.49Z"/><path class="cls-25" d="M543.52,171.05h0c-1.77.71-3.78-.15-4.49-1.92l-3.42-8.51c-.71-1.77.15-3.78,1.92-4.49h0c1.77-.71,3.78.15,4.49,1.92l3.42,8.51c.71,1.77-.15,3.78-1.92,4.49Z"/><path class="cls-25" d="M549.93,168.47h0c-1.77.71-3.78-.15-4.49-1.92l-3.42-8.51c-.71-1.77.15-3.78,1.92-4.49h0c1.77-.71,3.78.15,4.49,1.92l3.42,8.51c.71,1.77-.15,3.78-1.92,4.49Z"/><line class="cls-34" x1="529.05" y1="162.76" x2="532.83" y2="172.15"/><line class="cls-34" x1="535.39" y1="160.1" x2="539.17" y2="169.49"/><line class="cls-34" x1="541.94" y1="157.47" x2="545.72" y2="166.85"/><path class="cls-23" d="M878.54,668.15H218.46c-65.97,0-119.45,53.48-119.45,119.45h0c0,65.97,53.48,119.45,119.45,119.45h291.23l38.81,67.21,38.81-67.21h291.23c65.97,0,119.45-53.48,119.45-119.45h0c0-65.97-53.48-119.45-119.45-119.45Z"/><g class="cls-38"><path class="cls-28" d="M314.22,836.31h-68.72l20.72-97.41h68.65l-4.86,22.68h-40.03l-3.31,15.79h37.53l-4.39,20.52h-37.53l-3.38,15.73h40.1l-4.79,22.68Z"/><path class="cls-28" d="M323.6,836.31l20.72-97.41h21.6l26.53,53.46h.54l11.27-53.46h27.34l-20.72,97.41h-21.6l-26.53-53.46h-.54l-11.27,53.46h-27.34Z"/><path class="cls-28" d="M422.1,836.31l20.66-97.41h33.14l8.03,61.09h.54l32.88-61.09h35.71l-20.72,97.41h-25.31l13.16-61.29h-.81l-33.89,61.29h-16.47l-8.1-61.29h-.54l-13.03,61.29h-25.25Z"/><path class="cls-28" d="M612.2,836.31h-68.72l20.72-97.41h68.65l-4.86,22.68h-40.03l-3.31,15.79h37.53l-4.39,20.52h-37.53l-3.38,15.73h40.1l-4.79,22.68Z"/><path class="cls-28" d="M682.81,738.9c22.55,0,38.68,13.7,38.68,37.2,0,35.03-20.52,60.21-51.37,60.21h-48.54l20.72-97.41h40.5ZM655.33,813.62h10.67c15.26,0,26.06-12.69,26.06-33.89,0-10.87-5.94-18.23-16.07-18.23h-9.65l-11,52.11Z"/><path class="cls-28" d="M718.86,836.31l20.72-97.41h28.62l-20.72,97.41h-28.62Z"/><path class="cls-28" d="M821.26,816.93h-29.57l-9.52,19.37h-30.17l53.6-97.41h35.91l9.99,97.41h-29.36l-.88-19.37ZM801.62,796.75h18.77l-1.48-33.95h-.61l-16.67,33.95Z"/></g><g class="cls-37"><rect class="cls-28" y="482.7" width="1097" height="199" rx="7.94" ry="7.94"/><g id="_여기에_작업하세요."><path class="cls-20" d="M107.6,512.04l-3.08-1.53-1.53,3.08-39.07,79.16,79.18,39.07,3.08,1.53,1.53-3.08,39.07-79.18-79.18-39.05ZM180.22,553.34l-17.11,34.6-35.91-17.69-17.51-51.69,70.52,34.76v.02ZM105.11,520.13l15.96,47.08-31.52-15.56s15.56-31.52,15.56-31.52ZM70.39,590.58l17.05-34.58,35.85,17.71,17.51,51.67-70.4-34.8ZM129.42,576.75l31.52,15.56-15.56,31.52-15.96-47.08Z"/><path class="cls-29" d="M103.2,512.04l-3.08-1.53-1.51,3.08-39.09,79.16,79.18,39.07,3.08,1.53,1.53-3.08,39.07-79.18-79.18-39.05ZM175.81,553.34l-17.11,34.6-35.91-17.69-17.51-51.69,70.52,34.76v.02ZM100.68,520.13l15.96,47.08-31.52-15.56s15.56-31.52,15.56-31.52ZM65.96,590.58l17.05-34.58,35.85,17.71,17.53,51.67-70.42-34.8ZM124.99,576.75l31.52,15.56-15.56,31.52-15.96-47.08Z"/></g><circle class="cls-23" cx="991.28" cy="571.93" r="46.2"/><polygon class="cls-28" points="1007.68 571.91 1001.82 566.05 1001.8 566.07 980.75 545.02 974.89 550.88 995.94 571.93 974.89 592.98 980.75 598.84 1001.8 577.79 1001.82 577.81 1007.68 571.95 1007.66 571.93 1007.68 571.91"/><path class="cls-2" d="M244.03,611.69v-25.51h-28.84v-10.97h71.96v10.97h-29.33v25.51h-13.79ZM259.41,546.29c1.91,8.48,12.3,13.71,24.85,14.88l-5.4,10.55c-9.22-.66-22.6-5.48-27.67-14.29-4.9,8.81-17.87,13.71-27.92,14.46l-5.07-10.55c13.13-1.16,22.85-6.48,24.68-15.04h-21.36v-10.64h59.25v10.64h-21.36Z"/><path class="cls-2" d="M330.87,576.79c-5.82-1.83-13.71-7.65-16.7-14.13-2.33,7.15-11.3,13.79-18.12,16.04l-7.4-11.22c11.88-3.66,18.45-12.71,18.45-24.02v-7.98h13.96v7.23c0,12.63,7.15,19.69,17.28,23.02l-7.48,11.05ZM342.5,611.78v-18.61h-42.05v-10.72h55.93v29.33h-13.88ZM342.34,579.53v-47.45h13.96v47.45h-13.96Z"/><path class="cls-2" d="M396.6,586.6v4.4c6.23-.33,11.97-.83,17.2-1.58l1.08,10.64c-12.13,1.91-31.99,2.91-49.03,2.66l-1.58-11.38c6.32.08,12.46.08,18.45,0v-4.74c-8.06-1.91-13.05-7.15-13.05-13.21,0-7.31,7.98-13.88,19.94-13.88s19.94,6.56,19.94,13.88c0,6.15-5.07,11.3-12.96,13.21ZM366.35,557.84v-10.22h46.78v10.22h-46.78ZM378.48,544.8v-10.22h23.93v10.22h-23.93ZM389.7,577.7c3.74,0,6.73-1.75,6.73-4.32s-2.99-4.32-6.73-4.32-6.65,1.75-6.65,4.32,2.91,4.32,6.65,4.32ZM417.45,611.69v-79.61h13.88v79.61h-13.88Z"/><path class="cls-2" d="M478.11,594.16c-6.23-3.49-13.38-10.97-15.87-18.28-2.24,7.81-10.22,16.7-17.04,20.53l-8.73-10.64c14.46-8.39,18.78-20.03,18.78-37.73v-10.14h13.79v9.64c0,17.53,5.07,30.25,17.28,35.9l-8.23,10.72ZM501.38,572.14v39.56h-13.71v-79.61h13.71v28.09h9.97v11.97h-9.97Z"/><path class="cls-2" d="M557.47,537.65c13.63,0,21.77,12.3,21.77,29s-8.14,29.17-21.77,29.17-21.69-12.46-21.69-29.08,8.31-29.08,21.69-29.08ZM557.47,550.28c-4.4,0-8.14,5.15-8.14,16.37s3.74,16.45,8.14,16.45c4.74,0,8.31-5.07,8.31-16.45s-3.57-16.37-8.31-16.37ZM587.22,611.69v-79.61h13.79v79.61h-13.79Z"/><path class="cls-2" d="M648.37,588.09v-24.43h-3.08c-1.91,9.06-9.14,15.04-18.28,15.04-10.89,0-18.7-8.31-18.7-20.19s7.81-19.94,18.7-19.94c8.89,0,15.96,5.57,18.12,14.21h3.24v-19.36h12.63v54.68h-12.63ZM619.95,610.28v-26.34h13.88v15.54h44.71v10.8h-58.58ZM621.2,558.76c0,4.82,2.66,7.89,5.98,7.89s5.98-3.16,5.98-7.98-2.83-8.06-5.98-8.06c-3.32,0-5.98,3.24-5.98,8.14ZM664.08,589.67v-57.59h12.96v57.59h-12.96Z"/><path class="cls-2" d="M686.26,593.41v-54.51h39.47v54.51h-39.47ZM711.86,549.7h-11.63v32.82h11.63v-32.82ZM735.62,611.69v-79.61h13.96v79.61h-13.96Z"/><path class="cls-2" d="M806.25,591.08c-7.56,1.33-26.43,2.58-37.64,2.41-2.33,0-4.74-.08-6.98-.08v-54.51h38.81v10.8h-24.93v32.08c9.72.5,22.35-.42,29.58-1.91l1.16,11.22ZM809.66,611.69v-79.61h13.79v79.61h-13.79Z"/><path class="cls-2" d="M885.27,611.69v-40.39h-10.47c-1.58,13.55-9.06,23.27-20.69,23.27-12.96,0-21.02-12.3-21.02-28.84s8.06-28.84,21.02-28.84c11.47,0,18.95,9.31,20.61,22.69h10.55v-27.51h13.96v79.61h-13.96ZM854.11,549.53c-4.32,0-7.81,4.99-7.81,16.2s3.49,16.29,7.81,16.29,8.06-5.07,8.06-16.29-3.57-16.2-8.06-16.2Z"/><rect class="cls-16" y="653" width="1097" height="28.7" rx="7.94" ry="7.94"/></g></g></svg>