<?xml version="1.0" encoding="UTF-8"?><svg id="Layer_2" xmlns="http://www.w3.org/2000/svg" viewBox="0 0 200.49 200.49"><defs><style>.cls-1{fill:#f8e101;}.cls-1,.cls-2{stroke-width:0px;}.cls-2{fill:#391b1b;}</style></defs><g id="Layer_1-2"><g id="KAKAOTALK_CI"><rect class="cls-1" width="200.49" height="200.49" rx="40.28" ry="40.28"/><path class="cls-2" d="M99.61,31.19c-42.75,0-77.4,27.39-77.4,61.19,0,22,14.68,41.27,36.72,52.06-1.62,6.05-5.86,21.9-6.71,25.29-1.05,4.21,1.54,4.15,3.24,3.02,1.33-.89,21.21-14.4,29.79-20.23,4.65.69,9.46,1.06,14.37,1.06,42.75,0,77.4-27.4,77.4-61.19s-34.65-61.19-77.4-61.19"/><path class="cls-1" d="M68.33,74.58h-22.25c-2.04,0-3.83,1.54-3.95,3.57-.13,2.21,1.62,4.04,3.8,4.04h7.1v27.12c0,.99.41,1.96,1.12,2.66.7.7,1.68,1.1,2.68,1.1h.83c1,0,1.97-.4,2.67-1.1.71-.7,1.12-1.67,1.12-2.66v-27.12h6.73c2.04,0,3.83-1.54,3.95-3.57.13-2.21-1.62-4.05-3.81-4.05Z"/><path class="cls-1" d="M122.99,105.86h-10.61v-26.79c0-2.08-1.47-3.93-3.52-4.24-2.63-.4-4.9,1.55-4.9,4.02v29.11c0,.23.03.44.07.65-.04.21-.07.43-.07.65,0,1.89,1.57,3.41,3.52,3.41h15.48c1.72,0,3.26-1.21,3.51-2.9.31-2.1-1.36-3.91-3.48-3.91Z"/><path class="cls-1" d="M156.85,107.06l-11.83-15.53,10.68-10.69c1.45-1.44,1.45-3.79,0-5.24-1.45-1.45-3.79-1.45-5.24,0l-13.23,13.23v-10.89c0-1.95-1.3-3.73-3.2-4.17-2.77-.64-5.22,1.44-5.22,4.1v30.94c0,1.95,1.3,3.73,3.2,4.17,2.76.64,5.22-1.43,5.22-4.09v-9.57l2.4-2.4,11.19,14.68c1.24,1.66,3.61,2,5.27.75,1.66-1.25,2-3.61.75-5.27Z"/><path class="cls-1" d="M100.85,108.06l-11.28-30.86s-.03-.02-.04-.03c-.72-1.88-2.8-3.25-5.29-3.25-2.75,0-5.03,1.68-5.48,3.88-.08.16-.15.33-.22.51l-11.09,29.75c-.68,1.95.34,4.09,2.29,4.77,1.95.69,4.09-.34,4.77-2.29l1.92-5.48h15.44l1.92,5.48c.69,1.95,2.82,2.98,4.77,2.29,1.95-.68,2.97-2.82,2.29-4.77ZM78.89,97.84l5.19-14.8h.16s5.19,14.8,5.19,14.8h-10.54Z"/></g></g></svg>