<?xml version="1.0" encoding="UTF-8"?><svg id="Layer_2" xmlns="http://www.w3.org/2000/svg" viewBox="0 0 208.03 174"><defs><style>.cls-1{fill:#ffd400;}.cls-1,.cls-2{stroke-width:0px;}.cls-2{fill:#000;}</style></defs><g id="Layer_1-2"><path class="cls-1" d="M126.7,1.56l-3.16-1.56-1.56,3.16-40.14,81.33,81.33,40.14,3.16,1.56,1.56-3.16,40.14-81.33L126.7,1.56ZM201.29,43.99l-17.57,35.55-36.88-18.18-18-53.08,72.45,35.71ZM124.12,9.88l16.4,48.36-32.38-15.98,15.98-32.38ZM88.45,82.25l17.51-35.53,36.82,18.2,18,53.08-72.33-35.75ZM149.11,68.04l32.38,15.98-15.98,32.38-16.4-48.36Z"/><path class="cls-2" d="M122.17,1.56l-3.16-1.56-1.56,3.16-40.14,81.33,81.33,40.14,3.16,1.56,1.56-3.16,40.14-81.33L122.17,1.56ZM196.76,43.99l-17.57,35.55-36.88-18.18-18-53.08,72.45,35.71ZM119.59,9.88l16.4,48.36-32.38-15.98,15.98-32.38ZM83.92,82.25l17.51-35.53,36.82,18.2,18,53.08-72.33-35.75ZM144.58,68.04l32.38,15.98-15.98,32.38-16.4-48.36Z"/><path class="cls-2" d="M.19,78.32h7.57v45.72H.19v-45.72ZM28.78,78.32v5.65H10.3v-5.65h18.49ZM26.86,103.45H10.3v-5.09h16.56v5.09ZM10.3,118.4h18.49v5.64H10.3v-5.64Z"/><path class="cls-2" d="M38.96,124.04v-45.72h7.57v45.72h-7.57ZM64.45,78.32h7.57v45.72h-7.57l-15.39-27.05v-14.27l15.39,27.11v-31.51Z"/><path class="cls-2" d="M0,128.28h7.57l12.28,28.23v11.47h-1.99l-10.3-25.43v31.45H0v-45.72ZM34.68,128.28h7.57v45.72h-7.57v-31.45l-10.24,25.43h-2.05v-11.35l12.28-28.35Z"/><path class="cls-2" d="M53.85,128.28h7.57v45.72h-7.57v-45.72ZM82.44,128.28v5.65h-18.49v-5.65h18.49ZM80.52,153.4h-16.56v-5.09h16.56v5.09ZM63.96,168.35h18.49v5.65h-18.49v-5.65Z"/><path class="cls-2" d="M92.87,128.28h7.44v45.72h-7.44v-45.72ZM106.64,128.28c3.85,0,7.23.61,10.14,1.83,2.92,1.22,5.33,2.84,7.26,4.87,1.92,2.03,3.36,4.33,4.31,6.92.95,2.59,1.43,5.24,1.43,7.97,0,3.76-.4,6.98-1.21,9.65-.81,2.67-1.83,4.9-3.07,6.7-1.24,1.8-2.63,3.21-4.19,4.25-1.55,1.03-3.05,1.81-4.5,2.33-1.45.52-2.77.85-3.97.99-1.2.14-2.09.22-2.67.22h-7.32v-5.46h4.84c5.04,0,8.69-1.61,10.92-4.84,2.23-3.22,3.35-7.9,3.35-14.02,0-1.9-.23-3.78-.68-5.65-.46-1.86-1.33-3.55-2.63-5.06-1.3-1.51-3.07-2.73-5.31-3.66-2.23-.93-5.13-1.4-8.68-1.4h-1.8v-5.65h3.78Z"/><path class="cls-2" d="M148.08,174h-7.57v-45.72h7.57v45.72Z"/><path class="cls-2" d="M196.96,174h-7.69l-11.85-34.24-11.97,34.24h-7.75l16.01-45.66h7.38l15.88,45.66ZM181.51,159.48l1.8,5.03h-11.85l1.74-5.03h8.31Z"/></g></svg>