<?xml version="1.0" encoding="UTF-8"?><svg id="Layer_2" xmlns="http://www.w3.org/2000/svg" xmlns:xlink="http://www.w3.org/1999/xlink" viewBox="0 0 124.77 127.32"><defs><style>.cls-1{clip-path:url(#clippath);}.cls-2{clip-path:url(#clippath-1);}.cls-3{clip-path:url(#clippath-3);}.cls-4{clip-path:url(#clippath-2);}.cls-5{clip-rule:evenodd;fill:none;}.cls-5,.cls-6,.cls-7,.cls-8,.cls-9{stroke-width:0px;}.cls-6{fill:#f9bb00;}.cls-7{fill:#3e82f1;}.cls-8{fill:#32a753;}.cls-9{fill:#e74133;}</style><clipPath id="clippath"><path class="cls-5" d="M124.77,65.1c0-4.51-.4-8.85-1.16-13.02h-59.95v24.62h34.26c-1.48,7.96-5.96,14.7-12.7,19.21v15.97h20.57c12.04-11.08,18.98-27.4,18.98-46.79h0Z"/></clipPath><clipPath id="clippath-1"><path class="cls-5" d="M63.66,127.32c17.19,0,31.6-5.7,42.13-15.42l-20.57-15.97c-5.7,3.82-12.99,6.08-21.56,6.08-16.58,0-30.61-11.2-35.62-26.24H6.77v16.49c10.47,20.8,32,35.07,56.89,35.07h0Z"/></clipPath><clipPath id="clippath-2"><path class="cls-5" d="M28.04,75.75c-1.27-3.82-2-7.9-2-12.09s.72-8.28,2-12.09v-16.49H6.77C2.46,43.66,0,53.39,0,63.66s2.46,19.99,6.77,28.59l21.27-16.49h0Z"/></clipPath><clipPath id="clippath-3"><path class="cls-5" d="M63.66,25.32c9.35,0,17.74,3.21,24.33,9.52l18.26-18.26C95.23,6.31,80.82,0,63.66,0,38.77,0,17.25,14.27,6.77,35.07l21.27,16.49c5.01-15.05,19.04-26.24,35.62-26.24h0Z"/></clipPath></defs><g id="Layer_1-2"><g class="cls-1"><rect class="cls-7" x="28.29" y="16.72" width="131.84" height="130.54"/></g><g class="cls-2"><rect class="cls-8" x="-28.59" y="40.39" width="169.75" height="122.29"/></g><g class="cls-4"><rect class="cls-6" x="-35.37" y="-.3" width="98.77" height="127.91"/></g><g class="cls-3"><rect class="cls-9" x="-28.59" y="-35.37" width="170.21" height="122.29"/></g></g></svg>