<?xml version="1.0" encoding="UTF-8"?><svg id="Layer_2" xmlns="http://www.w3.org/2000/svg" viewBox="0 0 63.23 61.03"><defs><style>.cls-1{fill:#ffe300;}.cls-2{fill:#140700;}</style></defs><g id="_여기에_작업하세요."><path class="cls-1" d="m23.89.76l-1.53-.76-.76,1.53L2.19,40.86l39.34,19.41,1.53.76.76-1.53,19.41-39.34L23.89.76Zm36.08,20.52l-8.5,17.19-17.84-8.79L24.93,4l35.04,17.27ZM22.65,4.78l7.93,23.39-15.66-7.73,7.73-15.66ZM5.4,39.78l8.47-17.18,17.81,8.8,8.7,25.67L5.4,39.78Zm29.33-6.87l15.66,7.73-7.73,15.66-7.93-23.39Z"/><path class="cls-2" d="m21.7.76l-1.53-.76-.75,1.53L0,40.86l39.34,19.41,1.53.76.76-1.53,19.41-39.34L21.7.76Zm36.08,20.52l-8.5,17.19-17.84-8.79L22.74,4l35.04,17.27ZM20.45,4.78l7.93,23.39-15.66-7.73,7.73-15.66ZM3.2,39.78l8.47-17.18,17.81,8.8,8.71,25.67L3.2,39.78Zm29.33-6.87l15.66,7.73-7.73,15.66-7.93-23.39Z"/></g></svg>