<?xml version="1.0" standalone="no"?>
<!DOCTYPE svg PUBLIC "-//W3C//DTD SVG 20010904//EN"
 "http://www.w3.org/TR/2001/REC-SVG-20010904/DTD/svg10.dtd">
<svg version="1.0" xmlns="http://www.w3.org/2000/svg"
 width="1008.000000pt" height="1008.000000pt" viewBox="0 0 1008.000000 1008.000000"
 preserveAspectRatio="xMidYMid meet">
<metadata>
Created by potrace 1.14, written by Peter Selinger 2001-2017
</metadata>
<g transform="translate(0.000000,1008.000000) scale(0.100000,-0.100000)"
fill="#000000" stroke="none">
<path d="M3180 9825 c-19 -41 -38 -75 -42 -75 -5 0 -8 -6 -8 -14 0 -8 -34 -81
-75 -163 -41 -81 -75 -153 -75 -160 0 -6 -3 -13 -7 -15 -7 -2 -74 -131 -78
-148 -4 -17 -41 -86 -47 -88 -5 -2 -8 -9 -8 -15 0 -6 -70 -152 -156 -326 -86
-173 -160 -324 -165 -335 -5 -12 -13 -28 -19 -36 -21 -32 -304 -615 -302 -622
1 -5 -2 -8 -8 -8 -5 0 -10 -4 -10 -9 0 -5 -76 -164 -170 -353 -94 -189 -170
-349 -170 -356 0 -7 -3 -12 -8 -12 -4 0 -13 -15 -21 -32 -29 -66 -202 -412
-212 -425 -6 -7 -9 -13 -6 -13 4 0 -18 -47 -48 -105 -30 -58 -51 -105 -47
-105 4 0 2 -4 -4 -8 -11 -7 -52 -90 -52 -106 0 -5 -5 -12 -12 -16 -6 -4 -13
-13 -14 -21 -3 -17 -356 -732 -365 -739 -3 -3 -7 -10 -8 -15 -1 -10 -215 -443
-694 -1410 -95 -192 -173 -352 -174 -355 -1 -3 -40 -84 -88 -180 l-87 -175
220 -108 c121 -59 223 -107 226 -106 4 0 10 -3 13 -8 3 -4 31 -20 61 -35 30
-14 207 -101 392 -193 186 -91 341 -165 344 -165 4 1 10 -2 13 -7 5 -7 116
-64 131 -68 3 -1 165 -80 360 -177 352 -174 958 -473 1512 -747 157 -77 291
-141 297 -141 6 0 11 -4 11 -10 0 -5 4 -10 10 -10 5 0 100 -45 210 -99 110
-55 200 -97 200 -93 0 4 4 2 8 -3 9 -13 344 -180 355 -177 4 1 7 -3 7 -9 0 -5
4 -7 10 -4 5 3 10 2 10 -3 0 -5 18 -15 40 -22 22 -7 40 -17 40 -22 0 -4 5 -8
11 -8 7 0 70 -29 140 -65 71 -35 129 -62 129 -59 0 3 6 0 13 -6 18 -16 1085
-542 1089 -538 2 2 18 -7 36 -20 17 -13 32 -20 32 -17 0 3 13 -3 29 -14 16
-12 32 -21 36 -21 4 0 120 -56 259 -125 138 -68 256 -125 263 -127 7 -2 27 27
45 64 l33 67 139 -69 c77 -38 141 -68 142 -67 9 9 224 455 224 464 0 6 4 13 8
15 9 3 182 354 182 369 0 5 5 9 10 9 6 0 10 5 10 10 0 6 72 156 160 334 88
178 160 329 160 335 0 6 5 11 10 11 6 0 10 5 10 10 0 6 83 179 185 385 102
206 185 377 185 381 0 3 9 18 20 34 11 15 17 30 13 34 -3 3 -1 6 5 6 7 0 11 3
10 8 -2 10 24 65 35 73 5 3 8 9 7 13 -1 7 82 176 451 921 117 237 213 432 214
435 4 17 61 126 68 128 4 2 7 10 7 17 0 16 31 77 45 87 6 4 7 8 3 8 -4 0 17
47 47 105 30 58 51 105 47 105 -4 0 -2 4 3 8 12 8 115 215 115 230 0 6 3 12 7
14 5 2 28 46 53 98 25 52 48 97 53 98 4 2 7 8 7 14 0 6 50 112 112 237 62 124
111 229 110 234 -1 4 2 7 7 7 8 0 17 21 26 58 2 7 8 19 15 26 10 13 55 102
135 271 21 44 45 88 53 98 8 9 12 17 9 17 -5 0 167 352 338 692 50 100 52 107
36 122 -10 9 -25 16 -33 16 -9 0 -21 7 -28 15 -7 8 -16 12 -21 9 -5 -3 -9 -1
-9 5 0 5 -13 12 -30 16 -16 4 -30 11 -30 17 0 6 -3 8 -6 5 -4 -4 -20 3 -36 14
-16 12 -34 22 -41 23 -11 2 -284 136 -800 392 -104 52 -195 94 -202 94 -7 0
-15 4 -17 8 -3 9 -434 222 -448 222 -6 0 -10 5 -10 10 0 6 -5 10 -10 10 -6 0
-174 80 -373 178 -199 98 -377 185 -394 193 -18 7 -33 17 -33 21 0 5 -5 8 -11
8 -6 0 -84 36 -173 80 -89 44 -167 80 -173 80 -6 0 -13 3 -15 8 -3 6 -255 135
-268 137 -3 0 -149 72 -325 159 -799 396 -1070 530 -1075 531 -14 4 -68 31
-90 46 -14 9 -42 22 -62 28 -21 7 -38 17 -38 22 0 5 -5 9 -12 9 -7 0 -111 49
-233 109 -121 60 -413 205 -650 322 -236 117 -432 213 -435 214 -16 3 -286
141 -288 148 -2 4 -9 7 -16 7 -7 0 -33 11 -58 24 -42 22 -46 23 -60 7 -16 -19
-32 -52 -30 -63 1 -5 -3 -8 -8 -8 -5 0 -9 -5 -7 -11 1 -6 -5 -16 -14 -22 -13
-8 -44 3 -149 56 -72 37 -132 67 -133 67 -1 0 -18 -34 -37 -75z m926 -800 c24
-13 44 -21 44 -17 0 4 4 3 8 -3 4 -5 63 -38 132 -71 69 -34 220 -108 335 -165
116 -57 213 -102 218 -101 4 1 7 -2 7 -8 0 -5 4 -10 10 -10 12 0 431 -206 448
-220 6 -6 12 -9 12 -6 0 2 100 -46 223 -106 529 -263 909 -448 918 -448 5 0 9
-4 9 -10 0 -5 5 -10 10 -10 6 0 158 -73 338 -161 180 -89 481 -237 669 -330
189 -93 344 -168 345 -167 2 2 17 -7 35 -20 17 -12 34 -22 38 -22 4 0 180 -85
392 -190 211 -104 389 -190 394 -190 5 0 9 -4 9 -10 0 -5 6 -10 12 -10 7 0
110 -48 228 -107 118 -59 217 -108 220 -108 3 0 15 -7 28 -16 l22 -16 -82
-164 c-45 -90 -83 -166 -83 -169 -3 -14 -201 -406 -208 -411 -5 -3 -8 -8 -6
-10 2 -4 -189 -401 -211 -439 -14 -25 -79 -160 -80 -168 -1 -4 -8 -14 -15 -22
-7 -8 -14 -18 -14 -22 -2 -15 -56 -123 -63 -126 -5 -2 -8 -8 -8 -14 0 -16
-172 -362 -184 -370 -6 -4 -8 -8 -4 -8 4 0 -19 -53 -51 -117 -33 -65 -101
-203 -153 -308 -51 -104 -96 -191 -100 -193 -5 -2 -8 -12 -8 -22 0 -10 -5 -22
-10 -25 -6 -4 -98 36 -205 89 -107 53 -198 96 -203 96 -5 0 -15 7 -22 15 -7 8
-16 13 -20 10 -5 -3 -15 2 -23 10 -9 8 -19 15 -22 15 -4 0 -149 71 -324 157
-174 86 -318 157 -321 158 -3 0 -113 54 -245 120 -132 66 -242 120 -245 120
-3 0 -16 7 -30 15 -14 8 -63 33 -110 55 -47 22 -96 47 -110 55 -14 8 -27 15
-30 15 -24 6 -90 39 -90 46 0 5 -3 8 -7 7 -5 -2 -66 26 -138 61 -71 36 -131
62 -131 60 -1 -2 -10 3 -20 11 -11 9 -62 36 -114 60 -52 25 -96 48 -98 53 -2
4 -10 7 -19 7 -28 0 -48 34 -91 159 -24 69 -44 131 -46 136 -3 14 -46 147 -53
165 -4 8 -7 18 -8 23 -2 4 -3 8 -5 10 -1 1 -3 9 -5 17 -3 14 -80 239 -92 270
-3 8 -5 19 -4 24 1 4 -2 13 -8 20 -5 6 -18 40 -29 76 -11 36 -61 183 -110 327
-49 144 -87 265 -84 268 3 3 0 5 -7 5 -7 0 -10 4 -7 8 2 4 -2 21 -9 37 -8 17
-20 53 -29 80 -8 28 -50 155 -94 283 -44 127 -78 232 -75 232 3 0 1 6 -4 13
-10 11 -32 73 -33 89 0 4 -9 28 -20 53 -11 25 -17 45 -15 45 2 0 -4 20 -15 45
-11 25 -17 45 -13 45 3 0 1 6 -5 13 -6 7 -13 24 -16 37 -3 14 -22 72 -42 130
-40 113 -233 679 -238 695 -8 28 -52 163 -120 363 -42 123 -76 225 -76 228 0
8 12 4 56 -21z m-661 -430 c20 -60 38 -114 40 -120 1 -5 7 -22 13 -38 7 -15
14 -38 17 -50 10 -45 30 -97 38 -97 5 0 5 -5 2 -10 -4 -6 -2 -16 3 -23 5 -7
12 -23 15 -37 4 -22 229 -685 285 -842 11 -32 18 -58 16 -58 -3 0 1 -10 8 -22
6 -13 13 -27 14 -33 1 -5 32 -98 69 -205 60 -176 85 -251 91 -272 1 -5 3 -10
4 -13 1 -3 3 -8 5 -12 1 -5 5 -15 8 -23 3 -8 18 -51 32 -95 14 -44 29 -87 32
-95 4 -8 7 -17 8 -20 6 -20 62 -188 101 -300 25 -74 47 -139 49 -145 1 -5 5
-17 8 -25 3 -8 15 -44 27 -80 12 -36 24 -72 27 -80 11 -29 93 -272 93 -275 0
-2 -9 -1 -20 2 -11 3 -20 9 -20 14 0 5 -5 9 -12 9 -11 0 -108 47 -783 382
-176 87 -325 158 -331 158 -7 0 -14 3 -16 8 -3 7 -276 145 -290 146 -4 1 -13
7 -19 14 -7 6 -17 12 -22 12 -5 0 -132 61 -283 135 l-273 136 19 42 c10 23 52
110 94 194 42 83 76 155 76 159 0 4 7 15 16 25 8 9 17 23 18 31 3 19 99 212
109 219 5 3 8 9 8 13 -1 12 52 121 63 128 6 4 8 8 4 8 -4 0 23 60 60 133 36
72 65 135 64 140 -1 4 2 7 6 7 5 0 21 31 38 70 16 38 32 70 37 70 4 0 7 9 7
20 0 11 5 20 10 20 6 0 10 9 10 20 0 11 5 20 10 20 6 0 10 5 10 11 0 15 83
183 93 187 4 2 5 7 2 12 -3 5 0 14 7 22 7 7 14 20 16 28 2 8 9 18 15 22 7 4 9
8 5 8 -4 0 31 74 77 165 45 91 81 165 78 165 -2 0 4 12 14 28 10 15 27 44 36
66 10 21 19 37 21 35 2 -2 20 -53 41 -114z m-801 -2685 c267 -133 487 -239
488 -238 2 2 17 -7 34 -19 17 -12 34 -20 38 -16 3 3 6 1 6 -6 0 -7 5 -9 10 -6
6 3 10 1 10 -4 0 -6 3 -10 8 -9 10 2 366 -174 370 -184 2 -5 10 -8 17 -8 7 0
127 -57 267 -126 139 -69 309 -154 378 -187 69 -34 128 -66 131 -70 3 -5 9 -8
13 -7 4 1 72 -30 150 -69 126 -62 144 -75 149 -99 5 -26 169 -516 187 -557 4
-11 11 -29 13 -40 3 -11 42 -126 86 -255 44 -129 81 -236 81 -237 1 -12 3 -21
12 -36 5 -10 11 -26 13 -35 2 -9 27 -84 56 -167 28 -82 53 -154 54 -160 2 -10
7 -25 28 -80 7 -16 12 -32 13 -35 1 -11 25 -83 74 -225 28 -82 53 -157 55
-165 5 -17 33 -97 42 -120 3 -8 7 -17 7 -20 3 -11 98 -296 106 -315 4 -11 13
-33 19 -48 6 -16 9 -32 6 -37 -3 -5 -1 -11 4 -14 5 -3 17 -32 27 -64 9 -31 22
-63 27 -69 5 -7 7 -13 4 -13 -3 0 5 -30 19 -67 14 -38 27 -75 29 -83 2 -8 4
-16 5 -17 2 -2 3 -6 4 -10 3 -12 27 -86 33 -103 4 -8 7 -18 8 -22 2 -5 4 -10
5 -13 1 -3 3 -8 5 -12 1 -5 4 -15 8 -23 10 -26 98 -284 101 -300 2 -8 16 -49
31 -90 15 -41 28 -82 30 -90 2 -8 4 -16 5 -17 2 -2 3 -6 5 -10 1 -5 5 -15 8
-23 10 -25 49 -144 52 -162 2 -9 9 -26 15 -37 6 -12 7 -21 3 -21 -4 0 -2 -5 5
-12 7 -7 12 -20 12 -29 0 -14 -42 4 -199 82 -109 54 -203 99 -210 99 -6 0 -11
3 -11 8 0 4 -15 13 -32 21 -80 34 -483 236 -486 243 -2 4 -9 8 -15 8 -6 0 -57
22 -113 50 -56 28 -107 50 -113 50 -6 0 -11 5 -11 10 0 6 -4 10 -9 10 -6 0
-279 133 -608 296 -329 162 -659 326 -733 362 -74 37 -138 71 -141 75 -3 5 -8
7 -10 6 -4 -3 -154 70 -790 385 -195 97 -359 176 -363 176 -4 0 -21 9 -37 21
-16 11 -29 17 -29 14 0 -3 -13 3 -30 15 -17 12 -30 18 -30 13 0 -4 -4 -3 -8 2
-4 6 -68 39 -142 75 -74 36 -136 68 -138 73 -2 4 -9 7 -15 7 -6 0 -166 76
-354 170 -189 93 -348 170 -353 170 -6 0 -10 5 -10 10 0 6 -4 10 -9 10 -4 0
-40 15 -80 33 l-71 33 126 255 c222 448 305 618 303 621 -1 2 13 27 30 56 17
29 31 55 31 58 0 2 57 119 126 259 69 140 125 257 124 261 -1 4 2 10 7 13 13
10 33 49 33 66 0 8 5 15 10 15 6 0 10 4 10 9 0 5 77 166 172 358 95 191 171
351 170 356 -1 4 2 7 7 7 8 0 17 21 26 58 2 8 10 21 17 30 8 10 25 42 38 72
30 67 50 100 60 100 5 0 227 -108 494 -240z m3173 -1567 c109 -54 201 -102
205 -108 4 -5 8 -7 8 -3 0 3 74 -31 164 -77 91 -45 167 -80 170 -77 3 2 8 -3
12 -12 3 -9 10 -13 15 -10 6 3 16 1 23 -5 12 -10 95 -52 198 -101 27 -12 50
-26 54 -31 3 -5 14 -9 25 -9 10 0 19 -4 19 -10 0 -5 5 -10 11 -10 7 0 194 -90
416 -200 223 -110 409 -200 414 -200 5 0 9 -5 9 -10 0 -6 3 -9 8 -8 5 1 95
-37 110 -47 5 -4 -22 -60 -33 -67 -5 -4 -7 -8 -3 -8 4 0 -23 -60 -60 -132 -36
-73 -65 -136 -64 -140 1 -5 -2 -8 -8 -8 -5 0 -10 -4 -10 -9 0 -5 -111 -234
-246 -508 -449 -908 -544 -1102 -544 -1109 0 -3 -9 -17 -20 -31 -11 -14 -18
-29 -15 -33 3 -4 -2 -14 -11 -21 -8 -7 -14 -8 -13 -3 1 5 -1 16 -4 24 -4 8
-21 58 -38 110 -17 52 -34 99 -37 105 -4 5 -7 15 -7 20 -1 6 -4 17 -7 25 -4 8
-48 139 -98 290 -50 151 -95 284 -100 295 -5 11 -41 117 -80 235 -39 118 -76
224 -81 235 -5 11 -11 29 -13 40 -3 11 -40 125 -84 253 -44 127 -77 232 -73
232 3 0 1 4 -6 8 -6 4 -14 19 -16 32 -2 14 -9 39 -16 55 -24 57 -41 110 -41
128 0 9 -5 17 -12 17 -6 0 -9 3 -5 6 3 3 -14 61 -37 127 -24 67 -43 124 -44
127 0 3 -6 19 -12 35 -7 17 -13 37 -15 45 -2 8 -38 116 -80 240 -43 124 -78
230 -80 235 -1 6 -7 23 -13 38 -7 16 -12 34 -12 41 0 7 -3 16 -7 20 -4 3 -8
12 -9 19 -1 7 -5 20 -9 30 -4 9 -5 17 -1 17 3 0 94 -44 203 -97z"/>
</g>
</svg>
