<?xml version="1.0" encoding="UTF-8"?><svg id="Layer_2" xmlns="http://www.w3.org/2000/svg" viewBox="0 0 353.51 145.21"><defs><style>.cls-1{fill:#608ffb;}.cls-1,.cls-2,.cls-3,.cls-4{stroke-width:0px;}.cls-2{fill:#acc800;}.cls-3{fill:#f1685e;}.cls-4{fill:#fdbb00;}</style></defs><g id="Layer_1-2"><path class="cls-4" d="M201.46,0v49.91c0,8.4-6.81,15.2-15.2,15.2s-15.2-6.81-15.2-15.2V0h-31.17v49.42c0,25.61,20.76,46.37,46.37,46.37s46.37-20.76,46.37-46.37V0h-31.17Z"/><path class="cls-1" d="M47.13,21.01H0v100.35h47.13c27.71,0,50.18-22.46,50.18-50.18h0c0-27.71-22.46-50.18-50.18-50.18ZM48.11,89.22h-16.94v-36.06h16.94c9.96,0,18.03,8.07,18.03,18.03s-8.07,18.03-18.03,18.03Z"/><path class="cls-2" d="M124.68,47.89c-26.87,0-48.66,21.78-48.66,48.66s21.78,48.66,48.66,48.66c11.08,0,21.29-3.71,29.47-9.95,6.48,8.42,19.18,8.43,19.18,8.43v-47.13c0-26.87-21.78-48.66-48.66-48.66ZM124.68,115.56c-10.5,0-19.01-8.51-19.01-19.01s8.51-19.01,19.01-19.01,19.01,8.51,19.01,19.01-8.51,19.01-19.01,19.01Z"/><path class="cls-3" d="M310.94,22.53c-10.42,0-19.96,3.75-27.36,9.96-7.4-6.21-16.94-9.96-27.36-9.96-23.51,0-42.57,19.06-42.57,42.57v54.74h30.41v-54.74c0-6.72,5.45-12.16,12.16-12.16s11.96,5.26,12.15,11.82c0,.11,0,.23,0,.34v54.74h30.44v-54.74c0-.11,0-.23,0-.34,0,.11-.02.23-.02.34,0-6.72,5.45-12.16,12.16-12.16s12.16,5.45,12.16,12.16v54.74h30.41v-54.74c0-23.51-19.06-42.57-42.57-42.57Z"/></g></svg>