<?xml version="1.0" encoding="UTF-8"?><svg id="Layer_2" xmlns="http://www.w3.org/2000/svg" viewBox="0 0 174 174"><defs><style>.cls-1{fill:#1877f2;}.cls-1,.cls-2{stroke-width:0px;}.cls-2{fill:#fff;}</style></defs><g id="Layer_1-2"><path class="cls-1" d="M174,87C174,38.95,135.05,0,87,0S0,38.95,0,87c0,43.42,31.81,79.42,73.41,85.94v-60.79h-22.09v-25.15h22.09v-19.17c0-21.8,12.99-33.85,32.86-33.85,9.52,0,19.47,1.7,19.47,1.7v21.41h-10.97c-10.81,0-14.18,6.71-14.18,13.59v16.32h24.13l-3.86,25.15h-20.27v60.79c41.59-6.53,73.41-42.52,73.41-85.94Z"/><path class="cls-2" d="M120.87,112.15l3.86-25.15h-24.13v-16.32c0-6.88,3.37-13.59,14.18-13.59h10.97v-21.41s-9.96-1.7-19.47-1.7c-19.87,0-32.86,12.04-32.86,33.85v19.17h-22.09v25.15h22.09v60.79c4.43.7,8.97,1.06,13.59,1.06s9.16-.36,13.59-1.06v-60.79h20.27Z"/></g></svg>